<svg width="312" height="312" viewBox="0 0 312 312" fill="none" xmlns="http://www.w3.org/2000/svg">
<path d="M156.338 257.461C155.716 257.461 155.095 257.3 154.538 256.978L48.9207 196.001C47.808 195.358 47.1218 194.172 47.1206 192.888C47.1194 191.603 47.8019 190.416 48.9122 189.77L153.853 128.784C154.969 128.137 156.346 128.133 157.463 128.779L263.079 189.758C264.192 190.4 264.878 191.586 264.88 192.871C264.881 194.155 264.198 195.342 263.088 195.988L158.148 256.973C157.588 257.298 156.963 257.461 156.338 257.461ZM57.9053 192.872L156.333 249.699L254.095 192.885L155.667 136.058L57.9053 192.872Z" fill="#FFF05A"/>
<path d="M156.338 258.68C155.492 258.68 154.658 258.455 153.927 258.033L48.3113 197.057C46.8269 196.199 45.9043 194.603 45.9019 192.889C45.8994 191.178 46.8171 189.578 48.2991 188.716L153.241 127.731C154.709 126.879 156.608 126.876 158.073 127.725L263.689 188.702C265.173 189.56 266.096 191.156 266.098 192.87C266.101 194.581 265.183 196.181 263.701 197.043L158.759 258.027C158.026 258.453 157.187 258.68 156.338 258.68ZM155.664 129.515C155.243 129.515 154.829 129.628 154.464 129.84L49.5252 190.823C48.7927 191.25 48.3394 192.04 48.3406 192.887C48.3418 193.733 48.7976 194.522 49.5325 194.945L155.149 255.922C155.875 256.342 156.812 256.34 157.537 255.919L262.477 194.935C263.21 194.509 263.663 193.719 263.662 192.872C263.661 192.026 263.205 191.237 262.47 190.814L156.853 129.836C156.491 129.625 156.081 129.515 155.664 129.515ZM156.332 250.918C156.121 250.918 155.911 250.863 155.722 250.754L57.296 193.928C56.9194 193.709 56.6866 193.308 56.6866 192.873C56.6866 192.439 56.9169 192.036 57.2935 191.819L155.056 135.006C155.433 134.784 155.899 134.787 156.277 135.003L254.703 191.831C255.08 192.049 255.312 192.45 255.312 192.886C255.312 193.319 255.082 193.723 254.705 193.94L156.943 250.752C156.756 250.863 156.544 250.918 156.332 250.918ZM60.3367 192.868L156.33 248.291L251.663 192.89L155.67 137.467L60.3367 192.868Z" fill="#361E5B"/>
<path d="M108.659 231.416C107.122 230.529 106.355 229.365 106.359 228.202L106.287 253.616C106.283 254.778 107.05 255.942 108.587 256.83L150.606 281.089L150.678 255.675L108.659 231.416Z" fill="#C9C9EE"/>
<path d="M150.606 282.309C150.395 282.309 150.185 282.254 149.996 282.145L107.978 257.886C106.097 256.799 105.062 255.281 105.068 253.612L105.14 228.201V228.199C105.142 227.526 105.688 226.984 106.359 226.984H106.363C107.035 226.986 107.58 227.532 107.578 228.206C107.575 228.953 108.191 229.739 109.268 230.361L151.287 254.62C151.665 254.839 151.898 255.243 151.896 255.679L151.825 281.094C151.823 281.528 151.591 281.93 151.214 282.147C151.025 282.255 150.815 282.309 150.606 282.309ZM107.566 232.171L107.505 253.619C107.502 254.368 108.119 255.154 109.195 255.775L149.392 278.983L149.456 256.379L108.048 232.473C107.881 232.374 107.72 232.274 107.566 232.171Z" fill="#361E5B"/>
<path d="M203.449 231.413L161.699 255.676C158.668 257.437 153.733 257.439 150.678 255.676L150.606 281.089C153.661 282.852 158.596 282.85 161.627 281.089L203.378 256.826C204.884 255.951 205.638 254.804 205.642 253.656L205.714 228.243C205.71 229.392 204.956 230.538 203.449 231.413Z" fill="#FAFAFC"/>
<path d="M156.122 283.63C153.831 283.63 151.654 283.102 149.996 282.146C149.619 281.926 149.386 281.523 149.387 281.086L149.459 255.672C149.46 255.238 149.693 254.836 150.069 254.619C150.447 254.402 150.909 254.403 151.287 254.62C152.562 255.356 154.352 255.779 156.195 255.779C158.038 255.779 159.821 255.356 161.086 254.623L202.836 230.36C203.887 229.749 204.492 228.976 204.494 228.243V228.24C204.495 227.569 205.041 227.025 205.713 227.025H205.716C206.389 227.028 206.934 227.574 206.931 228.248L206.86 253.661C206.856 255.309 205.836 256.808 203.989 257.881L162.239 282.144C160.589 283.102 158.415 283.63 156.122 283.63ZM151.827 280.345C154.451 281.528 158.676 281.394 161.015 280.036L202.766 255.773C203.818 255.161 204.422 254.387 204.423 253.652L204.484 232.204C204.349 232.294 204.208 232.382 204.063 232.466L162.312 256.729C160.662 257.688 158.49 258.217 156.196 258.217C154.67 258.217 153.197 257.983 151.891 257.544L151.827 280.345Z" fill="#361E5B"/>
<path d="M203.413 225.029C206.468 226.792 206.479 229.652 203.448 231.413L161.698 255.676C158.667 257.437 153.732 257.439 150.677 255.676L108.659 231.416C105.604 229.653 105.593 226.794 108.622 225.032L150.373 200.77C153.404 199.009 158.339 199.006 161.394 200.77L203.413 225.029Z" fill="#FFF05A"/>
<path d="M156.195 258.217C153.903 258.217 151.727 257.689 150.068 256.731L108.05 232.472C106.175 231.389 105.142 229.878 105.14 228.215C105.138 226.561 106.158 225.056 108.011 223.979L149.761 199.717C151.411 198.757 153.583 198.229 155.877 198.229C158.169 198.229 160.345 198.756 162.004 199.714L204.022 223.973C205.897 225.056 206.93 226.567 206.932 228.23C206.934 229.884 205.914 231.389 204.061 232.466L162.311 256.729C160.661 257.689 158.489 258.217 156.195 258.217ZM155.877 200.666C154.034 200.666 152.251 201.089 150.986 201.823L109.235 226.085C108.181 226.699 107.577 227.474 107.578 228.211C107.578 228.956 108.195 229.739 109.268 230.36L151.287 254.619C152.562 255.355 154.352 255.778 156.195 255.778C158.038 255.778 159.821 255.355 161.086 254.621L202.837 230.358C203.891 229.745 204.495 228.97 204.494 228.233C204.494 227.488 203.877 226.705 202.804 226.084L160.785 201.825C159.51 201.089 157.721 200.666 155.877 200.666Z" fill="#361E5B"/>
<path d="M192.667 210.783L192.637 222.543C192.621 227.939 189.073 233.329 181.986 237.448C167.715 245.741 144.516 245.741 130.156 237.452C122.928 233.279 119.317 227.801 119.333 222.334L119.363 210.574C119.347 216.042 122.958 221.518 130.187 225.692C144.547 233.983 167.745 233.983 182.017 225.688C189.105 221.569 192.653 216.179 192.667 210.783Z" fill="#C9C9EE"/>
<path d="M156.1 244.888C146.104 244.888 136.673 242.623 129.547 238.508C122.158 234.241 118.097 228.496 118.114 222.332L118.144 210.581C118.144 210.577 118.144 210.574 118.144 210.571C118.146 209.899 118.692 209.356 119.363 209.356H119.367C120.039 209.358 120.584 209.904 120.582 210.578C120.567 215.832 124.194 220.824 130.796 224.636C137.557 228.54 146.555 230.69 156.132 230.691H156.134C165.71 230.691 174.683 228.54 181.405 224.635C187.868 220.879 191.434 215.959 191.448 210.78C191.45 210.109 191.996 209.565 192.667 209.565H192.67C193.342 209.568 193.887 210.114 193.886 210.788V210.789L193.855 222.547C193.838 228.627 189.841 234.294 182.598 238.502C175.512 242.619 166.102 244.888 156.1 244.888ZM120.561 218.59L120.551 222.337C120.537 227.592 124.164 232.584 130.766 236.395C137.527 240.299 146.525 242.45 156.1 242.45C165.678 242.45 174.654 240.299 181.373 236.394C187.836 232.637 191.402 227.717 191.418 222.539L191.428 218.779C189.525 221.75 186.554 224.46 182.63 226.74C175.544 230.858 166.133 233.126 156.134 233.126H156.132C146.134 233.125 136.703 230.859 129.577 226.746C125.534 224.412 122.488 221.636 120.561 218.59Z" fill="#361E5B"/>
<path d="M181.848 195.669C196.209 203.96 196.285 217.397 182.018 225.688C167.746 233.982 144.547 233.982 130.188 225.692C115.823 217.398 115.747 203.96 130.019 195.667C144.284 187.376 167.483 187.376 181.848 195.669Z" fill="#FAFAFC"/>
<path d="M156.13 233.127C146.133 233.127 136.703 230.862 129.576 226.747C122.212 222.495 118.152 216.769 118.143 210.627C118.135 204.525 122.133 198.837 129.404 194.612C136.488 190.496 145.895 188.229 155.894 188.229C165.894 188.229 175.327 190.496 182.457 194.612C189.818 198.862 193.877 204.587 193.886 210.728C193.894 216.831 189.897 222.518 182.628 226.741C175.543 230.859 166.131 233.127 156.13 233.127ZM155.895 190.666C146.321 190.666 137.347 192.817 130.63 196.72C124.144 200.489 120.576 205.428 120.582 210.624C120.589 215.86 124.216 220.836 130.796 224.635C137.558 228.539 146.556 230.69 156.132 230.69C165.708 230.69 174.685 228.539 181.405 224.634C187.89 220.864 191.457 215.927 191.45 210.732C191.442 205.496 187.817 200.521 181.239 196.725C174.474 192.818 165.472 190.666 155.895 190.666Z" fill="#361E5B"/>
<path d="M156.133 227.764C147.063 227.764 138.584 225.753 132.26 222.101C126.622 218.846 123.514 214.769 123.509 210.621C123.503 206.512 126.555 202.473 132.101 199.251C138.378 195.603 146.828 193.595 155.895 193.595C164.968 193.595 173.449 195.607 179.777 199.261C185.411 202.514 188.517 206.589 188.524 210.738C188.528 214.846 185.479 218.884 179.935 222.106C173.654 225.753 165.2 227.764 156.133 227.764Z" fill="#FFF05A"/>
<path d="M156.132 228.982C146.852 228.982 138.156 226.914 131.649 223.157C125.62 219.677 122.295 215.225 122.289 210.622C122.283 206.06 125.549 201.648 131.487 198.198C137.948 194.443 146.614 192.376 155.893 192.376C165.175 192.376 173.872 194.446 180.383 198.204C186.41 201.684 189.733 206.135 189.74 210.735C189.746 215.296 186.481 219.708 180.546 223.158C174.081 226.914 165.411 228.982 156.132 228.982ZM155.894 194.812C147.04 194.812 138.807 196.764 132.713 200.304C127.559 203.3 124.723 206.963 124.728 210.62C124.733 214.315 127.625 218.019 132.869 221.046C139.012 224.593 147.274 226.546 156.133 226.546C164.989 226.546 173.225 224.595 179.322 221.052C184.474 218.056 187.308 214.394 187.304 210.738C187.299 207.044 184.409 203.342 179.166 200.315C173.019 196.766 164.754 194.812 155.894 194.812Z" fill="#361E5B"/>
<path d="M163.227 216.21C163.431 217.982 162.381 219.798 160.054 221.151C156.088 223.455 149.814 223.626 145.468 221.676L141.505 223.978L137.583 221.714L141.48 219.449L139.521 218.318L135.625 220.583L131.703 218.318L135.599 216.054L130.699 213.224L134.59 210.962L137.529 212.658L157.009 201.338L154.071 199.641L157.967 197.377L162.868 200.207L166.764 197.942L170.686 200.207L166.79 202.471L168.748 203.602L172.644 201.338L176.566 203.602L172.601 205.907C175.983 208.417 175.708 212.052 171.743 214.357C169.415 215.71 166.289 216.322 163.227 216.21ZM160.004 212.094C162.166 213.342 165.673 213.342 167.821 212.094C169.968 210.846 169.957 208.813 167.795 207.567L160.931 203.603L153.14 208.131L160.004 212.094ZM148.316 218.886C150.478 220.134 153.985 220.134 156.133 218.886C158.28 217.638 158.269 215.605 156.107 214.359L149.243 210.395L141.452 214.923L148.316 218.886Z" fill="#361E5B"/>
<path d="M206.414 174.52C204.877 173.633 204.11 172.469 204.114 171.306L204.042 196.72C204.038 197.882 204.805 199.046 206.342 199.934L248.361 224.193L248.433 198.779L206.414 174.52Z" fill="#C9C9EE"/>
<path d="M248.361 225.412C248.15 225.412 247.94 225.357 247.751 225.248L205.732 200.989C203.852 199.902 202.817 198.385 202.823 196.716L202.895 171.304V171.302C202.896 170.629 203.442 170.086 204.114 170.086H204.118C204.79 170.089 205.335 170.635 205.333 171.309C205.33 172.057 205.946 172.842 207.023 173.464L249.043 197.723C249.421 197.942 249.654 198.346 249.653 198.782L249.581 224.196C249.579 224.63 249.347 225.033 248.97 225.25C248.78 225.358 248.571 225.412 248.361 225.412ZM205.322 175.273L205.261 196.723C205.258 197.471 205.875 198.257 206.951 198.878L247.148 222.086L247.213 199.481L205.804 175.576C205.637 175.477 205.475 175.377 205.322 175.273Z" fill="#361E5B"/>
<path d="M301.204 174.517L259.454 198.779C256.423 200.54 251.488 200.543 248.432 198.779L248.361 224.193C251.416 225.956 256.351 225.954 259.382 224.193L301.132 199.93C302.639 199.055 303.393 197.908 303.397 196.76L303.469 171.347C303.465 172.495 302.711 173.641 301.204 174.517Z" fill="#FAFAFC"/>
<path d="M253.879 226.734C251.587 226.734 249.411 226.206 247.752 225.248C247.375 225.029 247.142 224.625 247.143 224.189L247.215 198.775C247.216 198.341 247.449 197.938 247.826 197.722C248.202 197.505 248.667 197.506 249.043 197.723C250.318 198.459 252.107 198.882 253.95 198.882C255.793 198.882 257.577 198.46 258.842 197.725L300.593 173.464C301.643 172.852 302.248 172.078 302.25 171.343C302.253 170.67 302.797 170.128 303.469 170.128C303.47 170.128 303.471 170.128 303.472 170.128C304.145 170.13 304.69 170.676 304.688 171.35L304.616 196.765C304.611 198.414 303.591 199.913 301.746 200.984L259.995 225.247C258.345 226.205 256.173 226.734 253.879 226.734ZM249.582 223.449C252.207 224.632 256.43 224.496 258.77 223.14L300.521 198.877C301.572 198.266 302.176 197.494 302.178 196.758L302.239 175.309C302.104 175.399 301.962 175.487 301.817 175.571L260.067 199.832C258.417 200.792 256.243 201.321 253.95 201.321C252.425 201.321 250.952 201.088 249.646 200.648L249.582 223.449Z" fill="#361E5B"/>
<path d="M301.169 168.133C304.225 169.896 304.236 172.755 301.205 174.517L259.454 198.779C256.423 200.54 251.488 200.543 248.433 198.779L206.414 174.52C203.358 172.757 203.348 169.897 206.379 168.136L248.129 143.873C251.16 142.112 256.095 142.11 259.15 143.873L301.169 168.133Z" fill="#FFF05A"/>
<path d="M253.949 201.321C251.657 201.321 249.482 200.793 247.823 199.836L205.804 175.576C203.93 174.493 202.896 172.982 202.895 171.319C202.893 169.665 203.913 168.16 205.765 167.083L247.516 142.82C249.166 141.861 251.338 141.332 253.632 141.332C255.924 141.332 258.1 141.86 259.758 142.818L301.777 167.077C303.652 168.16 304.684 169.671 304.686 171.333C304.689 172.988 303.67 174.493 301.816 175.571L260.066 199.832C258.415 200.792 256.242 201.321 253.949 201.321ZM253.632 143.77C251.788 143.77 250.006 144.193 248.741 144.926L206.99 169.189C205.936 169.802 205.332 170.578 205.333 171.315C205.333 172.06 205.949 172.843 207.023 173.464L249.042 197.724C250.317 198.46 252.105 198.882 253.949 198.882C255.793 198.882 257.576 198.46 258.842 197.725L300.593 173.464C301.647 172.85 302.251 172.074 302.25 171.337C302.249 170.592 301.634 169.808 300.56 169.188L258.541 144.929C257.265 144.193 255.476 143.77 253.632 143.77Z" fill="#361E5B"/>
<path d="M290.423 153.887L290.393 165.646C290.377 171.043 286.829 176.432 279.742 180.552C265.471 188.845 242.272 188.845 227.912 180.555C220.684 176.382 217.073 170.905 217.089 165.438L217.119 153.678C217.103 159.146 220.714 164.621 227.943 168.796C242.303 177.087 265.501 177.087 279.773 168.792C286.86 164.673 290.407 159.283 290.423 153.887Z" fill="#C9C9EE"/>
<path d="M253.853 187.991C243.859 187.991 234.429 185.725 227.302 181.611C219.913 177.343 215.852 171.599 215.869 165.434L215.899 153.678C215.899 153.677 215.899 153.675 215.899 153.673C215.9 153.002 216.446 152.458 217.118 152.458C217.119 152.458 217.12 152.458 217.122 152.458C217.794 152.461 218.339 153.007 218.337 153.681C218.322 158.935 221.949 163.927 228.551 167.739C235.313 171.643 244.311 173.794 253.886 173.794C263.463 173.794 272.439 171.643 279.16 167.738C285.623 163.982 289.189 159.062 289.203 153.883C289.205 153.212 289.751 152.668 290.422 152.668C290.423 152.668 290.425 152.668 290.426 152.668C291.098 152.67 291.643 153.216 291.641 153.89L291.61 165.65C291.593 171.729 287.596 177.396 280.354 181.605C273.269 185.723 263.858 187.991 253.857 187.991C253.856 187.991 253.853 187.991 253.853 187.991ZM218.316 161.693L218.306 165.44C218.292 170.695 221.919 175.687 228.521 179.499C235.282 183.404 244.28 185.554 253.853 185.554C253.855 185.554 253.855 185.554 253.856 185.554C263.434 185.554 272.41 183.402 279.129 179.498C285.592 175.741 289.158 170.821 289.173 165.643L289.183 161.884C287.28 164.856 284.309 167.564 280.384 169.844C273.299 173.962 263.887 176.23 253.888 176.23C243.89 176.23 234.461 173.964 227.333 169.85C223.29 167.515 220.243 164.739 218.316 161.693Z" fill="#361E5B"/>
<path d="M279.603 138.772C293.964 147.063 294.039 160.5 279.773 168.791C265.501 177.084 242.302 177.084 227.943 168.794C213.577 160.501 213.502 147.063 227.774 138.769C242.04 130.478 265.238 130.478 279.603 138.772Z" fill="#FAFAFC"/>
<path d="M253.886 176.231C243.89 176.231 234.46 173.966 227.332 169.851C219.969 165.599 215.908 159.873 215.899 153.731C215.891 147.628 219.889 141.941 227.16 137.716C234.244 133.599 243.65 131.334 253.649 131.334C263.649 131.334 273.082 133.601 280.213 137.716C287.574 141.966 291.634 147.691 291.641 153.833C291.649 159.935 287.652 165.622 280.384 169.845C273.299 173.963 263.887 176.231 253.886 176.231ZM253.649 133.771C244.074 133.771 235.102 135.921 228.385 139.824C221.899 143.593 218.331 148.532 218.337 153.728C218.344 158.964 221.971 163.94 228.551 167.739C235.314 171.644 244.311 173.794 253.886 173.794C263.463 173.794 272.439 171.643 279.16 167.738C285.643 163.969 289.212 159.031 289.203 153.836C289.196 148.6 285.57 143.625 278.994 139.828C272.229 135.921 263.227 133.771 253.649 133.771Z" fill="#361E5B"/>
<path d="M253.888 170.866C244.818 170.866 236.339 168.855 230.015 165.204C224.377 161.949 221.269 157.872 221.264 153.723C221.258 149.615 224.31 145.576 229.856 142.354C236.133 138.706 244.583 136.698 253.65 136.698C262.722 136.698 271.204 138.71 277.531 142.363C283.166 145.616 286.272 149.692 286.278 153.84C286.283 157.949 283.234 161.987 277.69 165.209C271.408 168.857 262.956 170.866 253.888 170.866Z" fill="#FFF05A"/>
<path d="M253.888 172.085C244.608 172.085 235.914 170.017 229.405 166.261C223.376 162.78 220.052 158.327 220.045 153.726C220.039 149.164 223.306 144.751 229.243 141.301C235.704 137.546 244.37 135.479 253.649 135.479C262.931 135.479 271.629 137.549 278.14 141.308C284.166 144.788 287.489 149.237 287.496 153.838C287.502 158.399 284.237 162.81 278.302 166.261C271.837 170.017 263.167 172.085 253.888 172.085ZM253.649 137.915C244.795 137.915 236.562 139.866 230.468 143.407C225.314 146.402 222.477 150.066 222.483 153.723C222.488 157.417 225.38 161.121 230.624 164.15C236.768 167.695 245.03 169.649 253.888 169.649C262.744 169.649 270.979 167.698 277.077 164.155C282.228 161.159 285.063 157.497 285.058 153.84C285.054 150.146 282.164 146.446 276.921 143.419C270.775 139.87 262.51 137.915 253.649 137.915Z" fill="#361E5B"/>
<path d="M260.983 159.314C261.187 161.086 260.137 162.902 257.81 164.255C253.844 166.559 247.57 166.73 243.224 164.78L239.261 167.082L235.34 164.818L239.236 162.553L237.277 161.422L233.381 163.687L229.459 161.422L233.355 159.158L228.455 156.328L232.346 154.066L235.285 155.762L254.765 144.441L251.827 142.745L255.723 140.48L260.624 143.31L264.52 141.046L268.442 143.31L264.546 145.575L266.504 146.706L270.401 144.441L274.323 146.706L270.357 149.011C273.739 151.521 273.464 155.155 269.499 157.461C267.171 158.814 264.044 159.426 260.983 159.314ZM257.758 155.198C259.921 156.446 263.428 156.446 265.576 155.198C267.723 153.95 267.712 151.917 265.55 150.67L258.686 146.707L250.894 151.235L257.758 155.198ZM246.071 161.99C248.233 163.238 251.74 163.238 253.888 161.99C256.035 160.742 256.024 158.709 253.862 157.463L246.998 153.499L239.207 158.027L246.071 161.99Z" fill="#361E5B"/>
<path d="M10.903 174.52C9.36611 173.633 8.59951 172.469 8.60317 171.306L8.53126 196.72C8.52761 197.882 9.2942 199.046 10.831 199.934L52.8499 224.193L52.9218 198.779L10.903 174.52Z" fill="#C9C9EE"/>
<path d="M52.8499 225.412C52.6391 225.412 52.4294 225.357 52.2405 225.248L10.2217 200.989C8.33993 199.901 7.30643 198.383 7.31253 196.716L7.38443 171.302C7.38565 170.63 7.93165 170.086 8.60318 170.086H8.60684C9.27959 170.089 9.82437 170.635 9.82193 171.309C9.82071 172.057 10.4362 172.842 11.5123 173.464L53.5312 197.723C53.909 197.942 54.1418 198.346 54.1406 198.782L54.0686 224.196C54.0674 224.63 53.8347 225.033 53.4581 225.25C53.2691 225.358 53.0607 225.412 52.8499 225.412ZM9.81096 175.273L9.75003 196.723C9.74759 197.471 10.3643 198.255 11.4417 198.878L51.6372 222.086L51.7018 199.481L10.2936 175.576C10.1266 175.477 9.96453 175.377 9.81096 175.273Z" fill="#361E5B"/>
<path d="M105.694 174.517L63.9429 198.779C60.9119 200.54 55.9772 200.543 52.9218 198.779L52.8499 224.193C55.9053 225.956 60.84 225.954 63.871 224.193L105.622 199.93C107.128 199.055 107.883 197.908 107.886 196.76L107.958 171.347C107.956 172.495 107.2 173.641 105.694 174.517Z" fill="#FAFAFC"/>
<path d="M58.3684 226.734C56.0759 226.734 53.9004 226.206 52.2417 225.248C51.8639 225.029 51.6311 224.625 51.6323 224.189L51.7042 198.775C51.7055 198.341 51.9382 197.938 52.3148 197.722C52.6914 197.505 53.1545 197.506 53.5324 197.723C54.8072 198.459 56.5963 198.882 58.4403 198.882C60.2842 198.882 62.0673 198.46 63.3323 197.725L105.083 173.464C106.134 172.852 106.738 172.079 106.741 171.345V171.343C106.742 170.671 107.288 170.128 107.959 170.128H107.963C108.636 170.13 109.18 170.676 109.178 171.35L109.106 196.765C109.102 198.414 108.082 199.912 106.236 200.984L64.484 225.246C62.8339 226.205 60.662 226.734 58.3684 226.734ZM54.071 223.449C56.6975 224.632 60.9204 224.496 63.2592 223.14L105.01 198.877C106.062 198.265 106.666 197.494 106.667 196.758L106.728 175.309C106.593 175.399 106.453 175.487 106.307 175.571L64.556 199.832C62.9058 200.792 60.734 201.321 58.439 201.321C56.9144 201.321 55.4397 201.088 54.1356 200.648L54.071 223.449Z" fill="#361E5B"/>
<path d="M105.659 168.133C108.714 169.896 108.725 172.755 105.694 174.517L63.9431 198.779C60.9121 200.54 55.9774 200.543 52.922 198.779L10.9031 174.52C7.84774 172.757 7.83677 169.897 10.8678 168.136L52.6185 143.873C55.6496 142.112 60.5843 142.11 63.6397 143.873L105.659 168.133Z" fill="#FFF05A"/>
<path d="M58.438 201.321C56.1467 201.321 53.9712 200.793 52.3125 199.836L10.2937 175.576C8.41924 174.493 7.38574 172.982 7.38453 171.319C7.38209 169.665 8.40218 168.16 10.2547 167.083L52.0054 142.82C53.6556 141.861 55.8274 141.332 58.1211 141.332C60.4136 141.332 62.589 141.86 64.2477 142.818L106.267 167.077C108.141 168.16 109.173 169.671 109.176 171.333C109.178 172.988 108.159 174.493 106.306 175.571L64.5549 199.832C62.9059 200.792 60.7329 201.321 58.438 201.321ZM58.1211 143.77C56.2783 143.77 54.4953 144.193 53.2302 144.926L11.4795 169.189C10.4253 169.802 9.82081 170.578 9.82203 171.315C9.82203 172.06 10.4387 172.843 11.5124 173.464L53.5313 197.724C54.8061 198.46 56.5952 198.882 58.438 198.882C60.2819 198.882 62.065 198.46 63.3312 197.725L105.082 173.464C106.136 172.85 106.741 172.074 106.739 171.337C106.738 170.592 106.123 169.808 105.049 169.188L63.0302 144.929C61.7542 144.193 59.9651 143.77 58.1211 143.77Z" fill="#361E5B"/>
<path d="M94.9126 153.887L94.8821 165.646C94.8662 171.043 91.3185 176.432 84.2314 180.552C69.9599 188.845 46.761 188.845 32.4017 180.555C25.1732 176.382 21.5621 170.905 21.5779 165.438L21.6084 153.678C21.5926 159.146 25.2037 164.621 32.4321 168.796C46.7927 177.087 69.9903 177.087 84.2619 168.792C91.3489 164.673 94.8967 159.283 94.9126 153.887Z" fill="#C9C9EE"/>
<path d="M58.3427 187.991C48.3466 187.991 38.9183 185.725 31.7911 181.611C24.4018 177.343 20.3409 171.598 20.358 165.434L20.3884 153.684C20.3884 153.681 20.3884 153.677 20.3884 153.673C20.3897 153.002 20.9357 152.458 21.6072 152.458C21.6084 152.458 21.6096 152.458 21.6108 152.458C22.2836 152.461 22.8284 153.007 22.8259 153.681C22.8101 158.935 26.4383 163.927 33.0403 167.739C39.8019 171.644 48.7999 173.794 58.3756 173.794C67.9526 173.794 76.9287 171.643 83.6477 167.738C90.1107 163.982 93.6767 159.062 93.6926 153.883C93.6938 153.212 94.2398 152.668 94.9113 152.668C94.9126 152.668 94.9138 152.668 94.915 152.668C95.5877 152.67 96.1325 153.216 96.1301 153.89L96.0996 165.65C96.0826 171.729 92.0851 177.396 84.842 181.605C77.7574 185.723 68.3462 187.991 58.3452 187.991C58.3452 187.991 58.344 187.991 58.3427 187.991ZM22.8064 161.694L22.7967 165.44C22.7821 170.695 26.4091 175.687 33.011 179.499C39.7727 183.404 48.7695 185.554 58.344 185.554C58.3452 185.554 58.3452 185.554 58.3464 185.554C67.9246 185.554 76.8994 183.402 83.6184 179.498C90.0814 175.741 93.6475 170.821 93.6633 165.643L93.6731 161.883C91.7706 164.854 88.7981 167.564 84.8737 169.844C77.7879 173.962 68.3767 176.23 58.3769 176.23C48.3795 176.23 38.95 173.964 31.8227 169.85C27.7802 167.516 24.7333 164.74 22.8064 161.694Z" fill="#361E5B"/>
<path d="M84.0925 138.772C98.4531 147.063 98.5286 160.5 84.2619 168.791C69.9904 177.084 46.7915 177.084 32.4322 168.794C18.0668 160.501 17.9912 147.063 32.2628 138.769C46.5294 130.478 69.7271 130.478 84.0925 138.772Z" fill="#FAFAFC"/>
<path d="M58.3769 176.231C48.3795 176.231 38.95 173.966 31.8228 169.851C24.4591 165.599 20.3982 159.873 20.3897 153.731C20.3811 147.628 24.3798 141.941 31.6509 137.716C38.7343 133.599 48.1406 131.334 58.1392 131.334C68.1391 131.334 77.5722 133.601 84.7019 137.716C92.0631 141.966 96.1228 147.691 96.1313 153.832C96.1398 159.935 92.1423 165.622 84.8737 169.845C77.7879 173.963 68.3779 176.231 58.3769 176.231ZM58.1392 133.771C48.5647 133.771 39.5923 135.921 32.8758 139.824C26.3884 143.593 22.8198 148.532 22.8272 153.728C22.8345 158.964 26.4615 163.94 33.0415 167.739C39.8031 171.644 48.8012 173.794 58.3769 173.794C67.9538 173.794 76.9299 171.643 83.6489 167.738C90.1339 163.968 93.7011 159.031 93.6938 153.836C93.6865 148.6 90.0607 143.625 83.4831 139.828C76.7178 135.921 67.7174 133.771 58.1392 133.771Z" fill="#361E5B"/>
<path d="M58.3769 170.866C49.307 170.866 40.8281 168.855 34.5041 165.204C28.8661 161.949 25.7583 157.872 25.7534 153.723C25.7473 149.615 28.7991 145.576 34.3456 142.354C40.6222 138.706 49.0718 136.698 58.1393 136.698C67.2116 136.698 75.6929 138.71 82.0207 142.363C87.655 145.616 90.7616 149.692 90.7676 153.84C90.7725 157.949 87.7232 161.987 82.1791 165.209C75.8989 168.857 67.4456 170.866 58.3769 170.866Z" fill="#FFF05A"/>
<path d="M58.3769 172.085C49.0974 172.085 40.4028 170.017 33.8959 166.261C27.8655 162.78 24.542 158.328 24.5347 153.726C24.5286 149.164 27.7961 144.751 33.7338 141.301C40.1932 137.546 48.8609 135.479 58.1393 135.479C67.4225 135.479 76.1195 137.549 82.6301 141.308C88.6568 144.786 91.9791 149.237 91.9864 153.837C91.9925 158.4 88.7275 162.812 82.7921 166.261C76.3267 170.017 67.6565 172.085 58.3769 172.085ZM58.1393 137.915C49.2838 137.915 41.0512 139.866 34.9586 143.407C29.8046 146.402 26.9673 150.066 26.9722 153.723C26.9771 157.417 29.8691 161.121 35.1146 164.15C41.2571 167.695 49.519 169.649 58.3769 169.649C67.2336 169.649 75.4687 167.698 81.5661 164.155C86.7177 161.16 89.5526 157.498 89.5477 153.84C89.5416 150.146 86.6519 146.445 81.4101 143.419C75.2651 139.87 67.0008 137.915 58.1393 137.915Z" fill="#361E5B"/>
<path d="M65.4725 159.314C65.6761 161.086 64.6267 162.902 62.2989 164.255C58.3331 166.559 52.059 166.73 47.7129 164.78L43.7507 167.082L39.8288 164.818L43.7252 162.553L41.7666 161.422L37.8703 163.687L33.9483 161.422L37.8447 159.158L32.9441 156.328L36.8356 154.066L39.774 155.762L59.2545 144.441L56.3161 142.745L60.2124 140.48L65.113 143.31L69.0093 141.046L72.9313 143.31L69.0349 145.575L70.9935 146.706L74.8898 144.441L78.8118 146.706L74.8459 149.011C78.228 151.521 77.9538 155.155 73.9879 157.461C71.6601 158.814 68.5328 159.426 65.4725 159.314ZM62.2477 155.198C64.4098 156.446 67.9173 156.446 70.0648 155.198C72.2122 153.95 72.2012 151.917 70.0392 150.67L63.1752 146.707L55.3837 151.235L62.2477 155.198ZM50.5599 161.99C52.722 163.238 56.2295 163.238 58.377 161.99C60.5244 160.742 60.5134 158.709 58.3514 157.463L51.4874 153.499L43.6959 158.027L50.5599 161.99Z" fill="#361E5B"/>
<path d="M10.2997 265.466C9.15404 264.804 8.58245 263.937 8.58488 263.071L8.53126 282.01C8.52882 282.877 9.10041 283.745 10.246 284.405L41.5594 302.484L41.613 283.546L10.2997 265.466Z" fill="#C9C9EE"/>
<path d="M41.5594 303.702C41.3485 303.702 41.1389 303.647 40.95 303.538L9.63667 285.461C8.15711 284.607 7.30886 283.348 7.31251 282.007L7.36614 263.068C7.36736 262.397 7.91336 261.853 8.58489 261.853H8.58854C9.26129 261.856 9.80607 262.402 9.80364 263.076C9.80242 263.511 10.2156 264.012 10.909 264.412L42.2224 282.49C42.6002 282.71 42.833 283.113 42.8318 283.55L42.7781 302.487C42.7769 302.92 42.5441 303.323 42.1675 303.54C41.9786 303.648 41.769 303.702 41.5594 303.702ZM9.79389 266.581L9.75001 282.014C9.74879 282.45 10.1619 282.95 10.8542 283.35L40.3455 300.377L40.3918 284.249L9.79389 266.581Z" fill="#361E5B"/>
<path d="M80.9396 265.463L49.8261 283.545C47.5678 284.857 43.8896 284.86 41.613 283.545L41.5593 302.484C43.836 303.799 47.5141 303.797 49.7725 302.484L80.8859 284.403C82.0084 283.751 82.5715 282.896 82.5739 282.041L82.6275 263.103C82.6239 263.957 82.062 264.811 80.9396 265.463Z" fill="#FAFAFC"/>
<path d="M45.6702 304.688C43.9079 304.688 42.2321 304.279 40.9487 303.539C40.5697 303.32 40.3381 302.917 40.3394 302.48L40.393 283.542C40.3942 283.108 40.627 282.706 41.0036 282.49C41.3814 282.273 41.8433 282.273 42.2211 282.49C44.0297 283.534 47.4179 283.535 49.2131 282.493L80.3265 264.411C81.0127 264.013 81.4064 263.534 81.4076 263.099C81.4088 262.427 81.9548 261.884 82.6263 261.884H82.63C83.3027 261.886 83.8475 262.432 83.8451 263.106L83.7915 282.044C83.7878 283.387 82.9737 284.6 81.4978 285.457L50.3843 303.538C49.107 304.279 47.4337 304.688 45.6702 304.688ZM42.7805 301.725C44.6513 302.486 47.5531 302.362 49.1595 301.43L80.2729 283.348C80.9591 282.95 81.3527 282.471 81.354 282.036L81.3978 266.606L50.4379 284.599C48.4294 285.768 45.2887 286.059 42.8256 285.358L42.7805 301.725Z" fill="#361E5B"/>
<path d="M80.9129 260.706C83.1895 262.022 83.1981 264.152 80.9397 265.465L49.8262 283.546C47.5679 284.858 43.8897 284.861 41.6131 283.546L10.2997 265.466C8.02311 264.151 8.01458 262.02 10.2729 260.708L41.3864 242.626C43.6447 241.314 47.3229 241.311 49.5995 242.626L80.9129 260.706Z" fill="#FFF05A"/>
<path d="M45.7252 285.749C43.9628 285.749 42.2858 285.341 41.0025 284.601L9.69037 266.522C8.21569 265.672 7.36866 264.418 7.36744 263.083C7.365 261.753 8.20106 260.505 9.66112 259.656L40.7746 241.575C43.3267 240.09 47.6447 240.09 50.2102 241.572L81.5235 259.651C82.9982 260.502 83.8452 261.756 83.8464 263.09C83.8489 264.42 83.0128 265.668 81.5527 266.518L50.4393 284.599C49.162 285.34 47.4887 285.749 45.7252 285.749ZM45.4875 242.862C44.1676 242.862 42.8952 243.16 41.9982 243.682L10.8847 261.762C10.1974 262.162 9.8025 262.642 9.80372 263.078C9.80372 263.513 10.2169 264.012 10.9079 264.41L42.2213 282.489C44.0299 283.532 47.418 283.534 49.2132 282.492L80.3267 264.41C81.0141 264.011 81.4089 263.53 81.4077 263.094C81.4077 262.659 80.9946 262.16 80.3035 261.762L48.9902 243.683C48.0859 243.161 46.8086 242.862 45.4875 242.862Z" fill="#361E5B"/>
<path d="M231.141 265.466C229.995 264.804 229.423 263.937 229.426 263.071L229.372 282.009C229.37 282.876 229.941 283.743 231.087 284.404L262.4 302.483L262.454 283.545L231.141 265.466Z" fill="#C9C9EE"/>
<path d="M262.4 303.702C262.19 303.702 261.98 303.647 261.791 303.538L230.478 285.459C228.998 284.606 228.15 283.347 228.154 282.005L228.207 263.067C228.208 262.395 228.72 261.87 229.43 261.852C230.102 261.855 230.647 262.401 230.645 263.075C230.643 263.51 231.057 264.011 231.75 264.41L263.063 282.489C263.441 282.709 263.674 283.112 263.673 283.548L263.619 302.487C263.618 302.92 263.385 303.323 263.009 303.54C262.82 303.648 262.611 303.702 262.4 303.702ZM230.635 266.581L230.591 282.013C230.59 282.449 231.003 282.949 231.695 283.348L261.187 300.376L261.233 284.248L230.635 266.581Z" fill="#361E5B"/>
<path d="M301.781 265.463L270.667 283.545C268.409 284.857 264.731 284.86 262.454 283.545L262.4 302.483C264.677 303.798 268.355 303.795 270.614 302.483L301.727 284.401C302.849 283.749 303.413 282.895 303.415 282.039L303.469 263.101C303.466 263.957 302.903 264.811 301.781 265.463Z" fill="#FAFAFC"/>
<path d="M266.512 304.688C264.75 304.688 263.074 304.279 261.791 303.539C261.412 303.32 261.18 302.917 261.182 302.48L261.235 283.542C261.236 283.108 261.469 282.706 261.846 282.49C262.224 282.273 262.687 282.273 263.063 282.49C264.874 283.535 268.261 283.535 270.055 282.493L301.169 264.411C301.855 264.013 302.249 263.534 302.25 263.099C302.251 262.427 302.797 261.884 303.469 261.884H303.472C304.145 261.886 304.69 262.432 304.687 263.106L304.634 282.044C304.63 283.389 303.816 284.6 302.34 285.457L271.227 303.538C269.951 304.279 268.276 304.688 266.512 304.688ZM263.622 301.725C265.492 302.486 268.393 302.362 270.002 301.43L301.115 283.348C301.801 282.95 302.195 282.471 302.196 282.036L302.24 266.606L271.28 284.599C270.004 285.34 268.331 285.749 266.567 285.749C265.553 285.749 264.567 285.614 263.668 285.358L263.622 301.725Z" fill="#361E5B"/>
<path d="M301.754 260.707C304.031 262.022 304.039 264.152 301.781 265.465L270.667 283.546C268.409 284.858 264.731 284.861 262.454 283.546L231.141 265.467C228.864 264.152 228.856 262.022 231.114 260.709L262.227 242.628C264.486 241.315 268.164 241.313 270.441 242.628L301.754 260.707Z" fill="#FFF05A"/>
<path d="M266.567 285.749C264.806 285.749 263.129 285.341 261.846 284.601L230.533 266.522C229.058 265.672 228.211 264.418 228.21 263.083C228.207 261.753 229.043 260.505 230.503 259.656L261.617 241.575C264.169 240.089 268.486 240.091 271.052 241.572L302.366 259.651C303.84 260.502 304.688 261.756 304.69 263.09C304.692 264.42 303.856 265.668 302.396 266.518L271.283 284.599C270.004 285.34 268.331 285.749 266.567 285.749ZM266.33 242.862C265.01 242.862 263.738 243.16 262.841 243.682L231.727 261.763C231.04 262.163 230.645 262.643 230.646 263.079C230.646 263.515 231.059 264.013 231.75 264.412L263.064 282.49C264.873 283.535 268.262 283.535 270.056 282.493L301.169 264.412C301.856 264.012 302.251 263.532 302.25 263.095C302.25 262.66 301.837 262.162 301.146 261.763L269.831 243.683C268.927 243.161 267.651 242.862 266.33 242.862Z" fill="#361E5B"/>
<path d="M10.2997 70.0477C9.15404 69.3859 8.58245 68.5194 8.58488 67.6528L8.53126 86.591C8.52882 87.4575 9.10041 88.3253 10.246 88.9858L41.5594 107.065L41.613 88.1266L10.2997 70.0477Z" fill="#C9C9EE"/>
<path d="M41.5594 108.284C41.3485 108.284 41.1389 108.229 40.95 108.12L9.63667 90.0413C8.15711 89.1881 7.30886 87.9292 7.31251 86.5873L7.36614 67.6492C7.36736 66.9776 7.91336 66.4341 8.58489 66.4341H8.58854C9.26129 66.4365 9.80607 66.9825 9.80364 67.6565C9.80242 68.0928 10.2156 68.5925 10.9078 68.9922L42.2212 87.0712C42.599 87.2906 42.8318 87.694 42.8305 88.1303L42.7781 107.068C42.7769 107.502 42.5441 107.904 42.1675 108.121C41.9786 108.23 41.769 108.284 41.5594 108.284ZM9.79389 71.1628L9.75001 86.5946C9.74879 87.031 10.1619 87.5306 10.8542 87.9304L40.3455 104.958L40.3918 88.8298L9.79389 71.1628Z" fill="#361E5B"/>
<path d="M80.9396 70.0453L49.8261 88.1267C47.5678 89.4393 43.8896 89.4417 41.613 88.1267L41.5593 107.065C43.836 108.38 47.5141 108.377 49.7725 107.065L80.8859 88.9834C82.0084 88.3314 82.5715 87.4771 82.5739 86.6215L82.6275 67.6833C82.6239 68.5389 82.062 69.392 80.9396 70.0453Z" fill="#FAFAFC"/>
<path d="M45.6702 109.268C43.9079 109.268 42.2321 108.86 40.9487 108.12C40.5697 107.901 40.3381 107.497 40.3394 107.061L40.393 88.123C40.3942 87.6891 40.627 87.2869 41.0036 87.07C41.3802 86.8531 41.8433 86.8543 42.2211 87.0712C44.0297 88.1157 47.4191 88.1157 49.2131 87.0737L80.3265 68.9923C81.0127 68.5938 81.4064 68.1148 81.4076 67.6797C81.4088 67.0082 81.9548 66.4646 82.6263 66.4646H82.63C83.3027 66.467 83.8475 67.013 83.8451 67.687L83.7915 86.6264C83.7878 87.9694 82.9737 89.1809 81.4978 90.0377L50.3843 108.118C49.107 108.86 47.4337 109.268 45.6702 109.268ZM42.7805 106.307C44.6513 107.068 47.5531 106.944 49.1595 106.012L80.2729 87.9304C80.9591 87.5319 81.3527 87.0529 81.354 86.6191L81.3978 71.1885L50.4379 89.1797C48.4282 90.3497 45.2875 90.6422 42.8256 89.9402L42.7805 106.307Z" fill="#361E5B"/>
<path d="M80.9129 65.2872C83.1895 66.6022 83.1981 68.7326 80.9397 70.0452L49.8262 88.1266C47.5679 89.4392 43.8897 89.4416 41.6131 88.1266L10.2997 70.0476C8.02311 68.7326 8.01458 66.6022 10.2729 65.2896L41.3864 47.2083C43.6447 45.8957 47.3229 45.8932 49.5995 47.2083L80.9129 65.2872Z" fill="#FFF05A"/>
<path d="M45.7239 90.3301C43.9616 90.3301 42.2858 89.9218 41.0025 89.182L9.69037 71.1031C8.21569 70.2524 7.36866 68.9983 7.36744 67.6638C7.365 66.3341 8.20106 65.0861 9.66112 64.2367L40.7746 46.1553C43.3267 44.6709 47.6447 44.6721 50.2102 46.1529L81.5223 64.2318C82.997 65.0825 83.844 66.3366 83.8452 67.6711C83.8477 69.0008 83.0116 70.2488 81.5515 71.0982L50.4381 89.1796C49.162 89.9218 47.4875 90.3301 45.7239 90.3301ZM45.4875 47.4423C44.1676 47.4423 42.8952 47.7409 41.9982 48.2625L10.8847 66.3439C10.1974 66.7436 9.8025 67.2238 9.80372 67.6601C9.80372 68.0952 10.2169 68.5937 10.9079 68.9922L42.2213 87.0712C44.0299 88.1156 47.4192 88.1156 49.2132 87.0736L80.3267 68.9922C81.0141 68.5925 81.4089 68.1123 81.4077 67.676C81.4077 67.2409 80.9946 66.7424 80.3035 66.3439L48.9902 48.2649C48.0859 47.7421 46.8086 47.4423 45.4875 47.4423Z" fill="#361E5B"/>
<path d="M231.141 70.0477C229.995 69.3859 229.423 68.5194 229.426 67.6528L229.372 86.591C229.37 87.4575 229.941 88.3253 231.087 88.9858L262.4 107.065L262.454 88.1266L231.141 70.0477Z" fill="#C9C9EE"/>
<path d="M262.4 108.284C262.19 108.284 261.98 108.229 261.791 108.12L230.478 90.0413C228.998 89.1881 228.15 87.9292 228.154 86.5873L228.207 67.6492C228.208 66.9776 228.754 66.4341 229.426 66.4341H229.43C230.102 66.4365 230.647 66.9825 230.645 67.6565C230.643 68.0928 231.057 68.5925 231.749 68.9922L263.062 87.0712C263.44 87.2906 263.673 87.694 263.672 88.1303L263.618 107.068C263.617 107.502 263.384 107.904 263.007 108.121C262.82 108.23 262.611 108.284 262.4 108.284ZM230.635 71.1628L230.591 86.5946C230.59 87.031 231.003 87.5306 231.695 87.9304L261.187 104.958L261.233 88.8298L230.635 71.1628Z" fill="#361E5B"/>
<path d="M301.781 70.0452L270.667 88.1265C268.409 89.4391 264.731 89.4416 262.454 88.1265L262.4 107.065C264.677 108.38 268.355 108.377 270.614 107.065L301.727 88.9833C302.849 88.3313 303.413 87.4769 303.415 86.6214L303.469 67.682C303.466 68.5388 302.903 69.3919 301.781 70.0452Z" fill="#FAFAFC"/>
<path d="M266.512 109.268C264.75 109.268 263.074 108.86 261.791 108.12C261.412 107.901 261.18 107.497 261.182 107.061L261.235 88.1229C261.236 87.689 261.469 87.2868 261.846 87.0699C262.222 86.8529 262.686 86.8542 263.063 87.0711C264.873 88.1156 268.261 88.1156 270.055 87.0735L301.169 68.9922C301.855 68.5936 302.249 68.1147 302.25 67.6796C302.251 67.008 302.797 66.4645 303.469 66.4645H303.472C304.145 66.4669 304.69 67.0129 304.687 67.6869L304.634 86.6263C304.63 87.9693 303.816 89.1808 302.34 90.0375L271.227 108.119C269.951 108.86 268.276 109.268 266.512 109.268ZM263.622 106.307C265.492 107.068 268.393 106.944 270.002 106.012L301.115 87.9303C301.801 87.5318 302.195 87.0528 302.196 86.6189L302.24 71.1884L271.28 89.1808C269.271 90.3508 266.132 90.642 263.668 89.94L263.622 106.307Z" fill="#361E5B"/>
<path d="M301.754 65.2872C304.031 66.6022 304.039 68.7326 301.781 70.0452L270.667 88.1266C268.409 89.4392 264.731 89.4416 262.454 88.1266L231.141 70.0476C228.864 68.7326 228.856 66.6022 231.114 65.2896L262.227 47.2083C264.486 45.8957 268.164 45.8932 270.441 47.2083L301.754 65.2872Z" fill="#FFF05A"/>
<path d="M266.566 90.3301C264.804 90.3301 263.128 89.9218 261.845 89.182L230.531 71.1031C229.057 70.2524 228.21 68.9983 228.209 67.6638C228.206 66.3341 229.042 65.0861 230.502 64.2366L261.616 46.1553C264.168 44.6708 268.485 44.6708 271.051 46.1528L302.365 64.2318C303.839 65.0824 304.686 66.3365 304.689 67.6711C304.691 69.0007 303.855 70.2487 302.395 71.0982L271.282 89.1796C270.004 89.9218 268.33 90.3301 266.566 90.3301ZM266.33 47.4423C265.01 47.4423 263.738 47.7409 262.84 48.2625L231.727 66.3439C231.04 66.7436 230.645 67.2238 230.646 67.6601C230.646 68.0952 231.059 68.5937 231.75 68.9922L263.064 87.0711C264.873 88.1156 268.261 88.1156 270.056 87.0736L301.169 68.9922C301.856 68.5924 302.251 68.1123 302.25 67.6759C302.25 67.2409 301.837 66.7424 301.146 66.3439L269.831 48.2649C268.927 47.7421 267.651 47.4423 266.33 47.4423Z" fill="#361E5B"/>
<path d="M99.6122 108.004C97.7816 106.948 96.8688 105.561 96.8724 104.176L96.7871 134.446C96.7835 135.831 97.6963 137.218 99.5269 138.274L149.575 167.17L149.66 136.9L99.6122 108.004Z" fill="#C9C9EE"/>
<path d="M149.575 168.389C149.364 168.389 149.154 168.334 148.965 168.225L98.9175 139.33C96.7518 138.081 95.5623 136.344 95.5684 134.443L95.6537 104.174C95.6549 103.501 96.2009 102.958 96.8724 102.958C96.8737 102.958 96.8749 102.958 96.8761 102.958C97.5488 102.96 98.0936 103.506 98.0912 104.18C98.0888 105.156 98.8651 106.165 100.222 106.948L150.27 135.843C150.647 136.062 150.88 136.466 150.879 136.902L150.794 167.172C150.792 167.606 150.56 168.008 150.183 168.225C149.994 168.334 149.784 168.389 149.575 168.389ZM98.079 108.454L98.0047 134.45C98.0022 135.426 98.7786 136.435 100.135 137.218L148.361 165.061L148.439 137.602L99.0028 109.06C98.6713 108.868 98.363 108.666 98.079 108.454Z" fill="#361E5B"/>
<path d="M212.517 108.001L162.789 136.9C159.179 138.997 153.301 139.001 149.661 136.9L149.576 167.17C153.215 169.271 159.093 169.267 162.703 167.17L212.432 138.271C214.226 137.229 215.125 135.863 215.129 134.495L215.214 104.225C215.21 105.593 214.311 106.959 212.517 108.001Z" fill="#FAFAFC"/>
<path d="M156.146 169.963C153.457 169.963 150.906 169.347 148.966 168.225C148.587 168.006 148.355 167.603 148.356 167.166L148.442 136.896C148.443 136.462 148.676 136.06 149.052 135.843C149.429 135.626 149.892 135.627 150.27 135.844C151.845 136.755 153.964 137.256 156.232 137.256C158.5 137.256 160.611 136.756 162.174 135.847L211.903 106.948C213.249 106.165 213.99 105.198 213.993 104.225V104.223C213.994 103.551 214.54 103.008 215.212 103.008H215.216C215.888 103.01 216.433 103.556 216.431 104.23L216.345 134.499C216.341 136.376 215.167 138.091 213.043 139.325L163.314 168.224C161.383 169.345 158.839 169.963 156.146 169.963ZM150.796 166.435C152.289 167.142 154.16 167.527 156.146 167.527C158.415 167.527 160.525 167.027 162.089 166.118L211.818 137.219C213.163 136.437 213.905 135.468 213.908 134.493L213.982 108.498C213.718 108.693 213.433 108.88 213.128 109.056L163.399 137.955C161.469 139.078 158.923 139.696 156.232 139.696C154.318 139.696 152.476 139.384 150.874 138.801L150.796 166.435Z" fill="#361E5B"/>
<path d="M212.475 100.397C216.114 102.498 216.127 105.903 212.517 108.001L162.789 136.9C159.179 138.997 153.301 139.001 149.662 136.9L99.6124 108.004C95.9732 105.903 95.9598 102.498 99.5697 100.401L149.298 71.5016C152.908 69.4041 158.786 69.4005 162.426 71.5016L212.475 100.397Z" fill="#FFF05A"/>
<path d="M156.231 139.693C153.541 139.693 150.991 139.076 149.051 137.956L99.0029 109.06C96.8458 107.816 95.6562 106.086 95.6538 104.192C95.6514 102.307 96.8238 100.587 98.9566 99.3476L148.685 70.4474C150.616 69.3249 153.162 68.707 155.853 68.707C158.543 68.707 161.092 69.3249 163.034 70.445L213.082 99.3403C215.239 100.586 216.428 102.315 216.431 104.209C216.433 106.093 215.261 107.814 213.128 109.054L163.399 137.953C161.47 139.075 158.923 139.693 156.231 139.693ZM155.854 71.1457C153.586 71.1457 151.475 71.6467 149.911 72.5546L100.181 101.455C98.8323 102.24 98.0889 103.21 98.0913 104.188C98.0925 105.162 98.8689 106.168 100.222 106.949L150.27 135.846C151.845 136.756 153.962 137.256 156.231 137.256C158.466 137.256 160.633 136.743 162.174 135.847L211.903 106.948C213.252 106.163 213.996 105.193 213.993 104.214C213.992 103.24 213.216 102.234 211.863 101.452L161.815 72.5571C160.24 71.6467 158.122 71.1457 155.854 71.1457Z" fill="#361E5B"/>
<path d="M206.075 94.6129C205.784 94.8676 205.445 95.1102 205.059 95.3356L161.893 120.421C158.759 122.242 153.657 122.244 150.498 120.421L149.575 119.819V129.474L150.423 129.964C153.582 131.787 158.685 131.785 161.817 129.964L204.983 104.878C206.541 103.973 207.321 102.788 207.324 101.601L207.385 93.8524L206.075 94.6129Z" fill="#FAFAFC"/>
<path d="M156.127 132.549C153.765 132.549 151.523 132.005 149.814 131.018L148.967 130.529C148.589 130.311 148.357 129.909 148.357 129.474V119.819C148.357 119.372 148.602 118.96 148.996 118.747C149.39 118.534 149.866 118.554 150.243 118.799L151.165 119.401C152.433 120.131 154.29 120.569 156.204 120.569C158.117 120.569 159.967 120.131 161.282 119.368L204.448 94.2826C204.759 94.1022 205.037 93.9048 205.274 93.6964C205.333 93.6452 205.397 93.6001 205.464 93.5611L206.775 92.7994C207.154 92.5775 207.62 92.5788 207.998 92.7981C208.377 93.0187 208.609 93.4246 208.605 93.8621L208.544 101.611C208.539 103.294 207.492 104.831 205.597 105.933L162.429 131.016C160.73 132.004 158.491 132.549 156.127 132.549ZM150.794 128.77L151.031 128.906C152.356 129.671 154.214 130.11 156.127 130.11C158.039 130.11 159.89 129.673 161.205 128.908L204.371 103.824C205.47 103.184 206.103 102.373 206.105 101.596L206.148 96.0875C205.995 96.1924 205.835 96.2923 205.669 96.3886L162.505 121.473C160.805 122.461 158.567 123.005 156.203 123.005C154.238 123.005 152.355 122.628 150.794 121.935V128.77Z" fill="#361E5B"/>
<path d="M106.325 94.8481L104.66 93.8877L104.601 101.559C104.597 102.76 105.39 103.964 106.978 104.881L149.574 129.473V119.818L107.054 95.338C106.786 95.1832 106.548 95.0175 106.325 94.8481Z" fill="#C9C9EE"/>
<path d="M149.575 130.691C149.364 130.691 149.154 130.637 148.966 130.528L106.37 105.935C104.44 104.821 103.377 103.266 103.383 101.554L103.443 93.8754C103.446 93.4416 103.68 93.0418 104.056 92.8273C104.432 92.6116 104.896 92.614 105.271 92.8298L106.935 93.7914C106.978 93.8169 107.02 93.845 107.06 93.8754C107.244 94.0144 107.44 94.1533 107.662 94.2813L150.183 118.761C150.561 118.978 150.794 119.381 150.794 119.817V129.471C150.794 129.907 150.562 130.31 150.184 130.527C149.995 130.637 149.786 130.691 149.575 130.691ZM105.863 96.0205L105.819 101.568C105.817 102.351 106.462 103.175 107.588 103.825L148.356 127.363V120.525L106.446 96.3946C106.237 96.2752 106.046 96.1496 105.863 96.0205Z" fill="#361E5B"/>
<path d="M99.6122 60.6523C97.7816 59.5957 96.8688 58.2087 96.8724 56.8242L96.7871 87.0943C96.7835 88.4788 97.6963 89.8657 99.5269 90.9224L149.575 119.818L149.66 89.5477L99.6122 60.6523Z" fill="#C9C9EE"/>
<path d="M149.575 121.038C149.364 121.038 149.154 120.983 148.965 120.874L98.9175 91.9778C96.7518 90.7286 95.5623 88.9919 95.5684 87.0907L95.6537 56.8218C95.6549 56.149 96.2009 55.6055 96.8724 55.6055C96.8737 55.6055 96.8749 55.6055 96.8761 55.6055C97.5488 55.6079 98.0936 56.1539 98.0912 56.8279C98.0888 57.8053 98.8651 58.8144 100.222 59.5957L150.271 88.4922C150.649 88.7116 150.881 89.115 150.88 89.5513L150.795 119.821C150.794 120.255 150.561 120.657 150.184 120.874C149.994 120.984 149.784 121.038 149.575 121.038ZM98.079 61.102L98.0047 87.098C98.0022 88.0742 98.7786 89.0833 100.135 89.8657L148.361 117.711L148.439 90.2509L99.0016 61.7077C98.6713 61.5164 98.363 61.3141 98.079 61.102Z" fill="#361E5B"/>
<path d="M212.517 60.6487L162.789 89.5477C159.179 91.6452 153.301 91.6489 149.661 89.5477L149.576 119.818C153.215 121.919 159.093 121.915 162.703 119.818L212.431 90.9188C214.225 89.8768 215.124 88.5106 215.128 87.1431L215.213 56.873C215.21 58.2405 214.311 59.6055 212.517 60.6487Z" fill="#FAFAFC"/>
<path d="M156.145 122.611C153.455 122.611 150.906 121.993 148.966 120.873C148.588 120.654 148.355 120.25 148.356 119.814L148.442 89.5441C148.443 89.1102 148.676 88.708 149.052 88.4911C149.43 88.2729 149.893 88.2766 150.27 88.4923C151.845 89.4027 153.964 89.9036 156.232 89.9036C158.5 89.9036 160.611 89.4027 162.174 88.4947L211.903 59.5945C213.249 58.8121 213.99 57.8444 213.993 56.8718V56.8694C213.994 56.1979 214.54 55.6543 215.212 55.6543H215.216C215.888 55.6567 216.433 56.2027 216.431 56.8767L216.345 87.1468C216.341 89.0237 215.167 90.7372 213.043 91.9718L163.314 120.871C161.383 121.993 158.837 122.611 156.145 122.611ZM150.796 119.083C152.289 119.79 154.159 120.175 156.145 120.175C158.415 120.175 160.525 119.674 162.089 118.765L211.819 89.8646C213.164 89.0822 213.907 88.1145 213.909 87.1395L213.983 61.1435C213.719 61.3385 213.434 61.525 213.129 61.7017L163.4 90.6019C161.47 91.7244 158.924 92.3423 156.233 92.3423C154.32 92.3423 152.477 92.0291 150.875 91.4465L150.796 119.083Z" fill="#361E5B"/>
<path d="M212.475 53.0449C216.114 55.146 216.127 58.5512 212.517 60.6487L162.789 89.5477C159.179 91.6451 153.301 91.6488 149.662 89.5477L99.6124 60.6523C95.9732 58.5512 95.9598 55.146 99.5697 53.0485L149.298 24.1495C152.908 22.0521 158.786 22.0484 162.426 24.1495L212.475 53.0449Z" fill="#FFF05A"/>
<path d="M156.232 92.3423C153.542 92.3423 150.992 91.7244 149.051 90.6044L99.0029 61.709C96.8458 60.4634 95.6562 58.734 95.6538 56.8389C95.6514 54.9547 96.8238 53.235 98.9566 51.9956L148.685 23.0954C150.616 21.9729 153.162 21.355 155.853 21.355C158.543 21.355 161.092 21.9729 163.034 23.0929L213.082 51.9883C215.239 53.2338 216.428 54.9632 216.431 56.8584C216.433 58.7426 215.261 60.4622 213.128 61.7017L163.4 90.6019C161.47 91.7244 158.924 92.3423 156.232 92.3423ZM155.854 23.7925C153.586 23.7925 151.475 24.2934 149.911 25.2014L100.181 54.1028C98.8323 54.8877 98.0901 55.8578 98.0913 56.8364C98.0925 57.8102 98.8689 58.8169 100.222 59.5981L150.27 88.4935C151.845 89.4039 153.964 89.9048 156.232 89.9048C158.5 89.9048 160.611 89.4039 162.174 88.4959L211.903 59.5957C213.252 58.8108 213.994 57.8407 213.993 56.862C213.992 55.8883 213.216 54.8816 211.863 54.1004L161.815 25.205C160.24 24.2946 158.122 23.7925 155.854 23.7925Z" fill="#361E5B"/>
<path d="M199.675 36.0761L199.639 50.0832C199.62 56.5121 195.395 62.9301 186.953 67.8368C169.954 77.716 142.322 77.716 125.218 67.8404C116.608 62.8691 112.308 56.3464 112.326 49.8346L112.363 35.8275C112.345 42.3405 116.644 48.862 125.255 53.8333C142.359 63.7089 169.99 63.7089 186.989 53.8297C195.43 48.923 199.657 42.5038 199.675 36.0761Z" fill="#C9C9EE"/>
<path d="M156.116 76.4644C144.251 76.4644 133.063 73.777 124.609 68.8959C115.881 63.8564 111.087 57.0862 111.107 49.8298L111.144 35.8324C111.144 35.8288 111.144 35.8263 111.144 35.8227C111.145 35.1499 111.714 34.5808 112.366 34.6076C113.039 34.61 113.584 35.156 113.582 35.83C113.563 42.1748 117.925 48.1942 125.864 52.7767C133.953 57.447 144.712 60.0185 156.157 60.0185C167.606 60.0185 178.339 57.4458 186.377 52.7743C194.149 48.2576 198.439 42.3259 198.457 36.0713C198.458 35.3998 199.004 34.8562 199.675 34.8562C199.676 34.8562 199.678 34.8562 199.679 34.8562C200.352 34.8587 200.896 35.4047 200.894 36.0786L200.857 50.0857C200.837 57.2422 196.117 63.921 187.565 68.8886C179.16 73.7733 167.993 76.4644 156.12 76.4644C156.12 76.4644 156.117 76.4644 156.116 76.4644ZM113.558 44.5441L113.545 49.8383C113.527 56.1831 117.889 62.2025 125.828 66.785C133.916 71.4553 144.673 74.0269 156.116 74.0269C156.117 74.0269 156.118 74.0269 156.12 74.0269C167.57 74.0269 178.301 71.4541 186.34 66.7826C194.112 62.2671 198.402 56.3355 198.42 50.0796L198.433 44.772C196.22 48.555 192.553 52.0065 187.601 54.8827C179.195 59.7687 168.028 62.4585 156.156 62.4585C144.289 62.4585 133.099 59.7711 124.644 54.89C119.551 51.948 115.797 48.4173 113.558 44.5441Z" fill="#361E5B"/>
<path d="M186.787 18.074C203.891 27.9496 203.981 43.9542 186.988 53.8297C169.989 63.7089 142.357 63.7089 125.254 53.8334C108.144 43.9542 108.053 27.9496 125.052 18.0704C142.045 8.19484 169.677 8.19484 186.787 18.074Z" fill="#FAFAFC"/>
<path d="M156.156 62.4573C144.289 62.4573 133.099 59.7699 124.644 54.8888C115.947 49.8676 111.153 43.1206 111.143 35.8897C111.133 28.7077 115.856 22.0045 124.441 17.0174C132.843 12.1339 144.005 9.44531 155.875 9.44531C167.744 9.44531 178.939 12.1339 187.398 17.0174C196.091 22.0374 200.884 28.7832 200.894 36.0128C200.904 43.1949 196.184 49.8956 187.602 54.8815C179.195 59.7675 168.029 62.4573 156.156 62.4573ZM155.873 11.8828C144.428 11.8828 133.699 14.4544 125.664 19.1234C117.863 23.6572 113.572 29.6095 113.579 35.8873C113.588 42.2102 117.95 48.2089 125.862 52.7768C133.951 57.447 144.71 60.0186 156.155 60.0186C167.604 60.0186 178.336 57.4458 186.375 52.7743C194.173 48.2418 198.463 42.2894 198.454 36.0141C198.446 29.6912 194.085 23.6949 186.176 19.1283C178.085 14.4556 167.322 11.8828 155.873 11.8828Z" fill="#361E5B"/>
<path d="M156.157 56.3013C145.353 56.3013 135.256 53.9053 127.723 49.5568C121.007 45.6799 117.306 40.8232 117.3 35.8824C117.293 30.9879 120.928 26.1787 127.534 22.3397C135.01 17.9948 145.075 15.6024 155.874 15.6024C166.68 15.6024 176.781 17.9985 184.319 22.3506C191.031 26.225 194.73 31.0793 194.737 36.0201C194.743 40.9146 191.111 45.7226 184.508 49.5604C177.027 53.9065 166.959 56.3013 156.157 56.3013Z" fill="#FFF05A"/>
<path d="M156.157 57.5189C145.142 57.5189 134.828 55.0655 127.113 50.6122C120.006 46.5099 116.089 41.279 116.08 35.8824C116.073 30.5345 119.923 25.3512 126.921 21.2854C134.579 16.8346 144.861 14.3824 155.872 14.3824C166.89 14.3824 177.208 16.837 184.927 21.2928C192.031 25.3951 195.947 30.6235 195.955 36.0177C195.962 41.3644 192.113 46.5477 185.119 50.6134C177.456 55.068 167.171 57.5189 156.157 57.5189ZM155.873 16.8212C145.285 16.8212 135.439 19.1551 128.147 23.3939C121.933 27.005 118.513 31.4401 118.519 35.8812C118.525 40.3711 122.011 44.8524 128.333 48.5014C135.684 52.745 145.565 55.0814 156.159 55.0814C166.748 55.0814 176.598 52.7463 183.896 48.5062C190.108 44.8951 193.526 40.4613 193.519 36.0201C193.513 31.5327 190.029 27.0538 183.711 23.4036C176.356 19.1599 166.469 16.8212 155.873 16.8212Z" fill="#361E5B"/>
<path d="M164.608 42.5405C164.851 44.6513 163.6 46.8146 160.829 48.4258C156.105 51.1717 148.633 51.374 143.455 49.051L138.736 51.7932L134.065 49.0961L138.706 46.399L136.373 45.0523L131.732 47.7494L127.061 45.0523L131.702 42.3552L125.864 38.9854L130.499 36.2919L133.998 38.3126L157.201 24.8284L153.701 22.8077L158.342 20.1106L164.18 23.4804L168.821 20.7833L173.493 23.4804L168.852 26.1775L171.184 27.5243L175.825 24.8272L180.497 27.5243L175.773 30.2701C179.801 33.2609 179.474 37.5899 174.751 40.3358C171.979 41.9457 168.255 42.6733 164.608 42.5405ZM160.769 37.6374C163.343 39.1243 167.522 39.1243 170.08 37.6374C172.638 36.1506 172.625 33.7301 170.05 32.2445L161.874 27.5243L152.594 32.9184L160.769 37.6374ZM146.847 45.7287C149.421 47.2156 153.6 47.2156 156.158 45.7287C158.717 44.2418 158.703 41.8214 156.128 40.3358L147.953 35.6155L138.672 41.0097L146.847 45.7287Z" fill="#361E5B"/>
</svg>
