<svg width="48" height="46" viewBox="0 0 48 46" fill="none" xmlns="http://www.w3.org/2000/svg">
  <defs>
    <linearGradient id="logoGradient" gradientTransform="rotate(90)">
      <stop offset="0%" stop-color="#D7CAD5"/>
      <stop offset="28.39%" stop-color="#FDC39A"/>
      <stop offset="87.13%" stop-color="#C6CDF0"/>
      <stop offset="100%" stop-color="#D7CAD5"/>
    </linearGradient>
    
    <clipPath id="logoClip">
      <path d="M38.6757 1.94727L38.7112 0.447689L38.6934 0.447268H38.6757V1.94727ZM39.0372 1.95583L39.1132 0.457762L39.0929 0.456735L39.0727 0.456256L39.0372 1.95583ZM45.6932 8.96481L47.1932 8.96481V8.96481L45.6932 8.96481ZM39.0372 15.9738L39.0727 17.4734L39.0929 17.4729L39.1132 17.4719L39.0372 15.9738ZM38.6757 15.9824V17.4824H38.6934L38.7112 17.4819L38.6757 15.9824ZM0.333548 8.96481C0.333548 9.79324 1.00512 10.4648 1.83355 10.4648C2.66198 10.4648 3.33355 9.79324 3.33355 8.96481L0.333548 8.96481ZM8.85109 1.94727V3.44727V1.94727ZM4.83261 5.18368C5.40033 4.58036 5.37148 3.63105 4.76816 3.06334C4.16485 2.49562 3.21554 2.52447 2.64782 3.12778L4.83261 5.18368ZM43.4846 31.9244L44.5417 30.8602L44.5274 30.8459L44.5126 30.8321L43.4846 31.9244ZM43.7416 32.1797L44.8237 31.1409L44.8113 31.128L44.7987 31.1154L43.7416 32.1797ZM43.7861 41.8442L44.8784 42.8722L44.8785 42.8721L43.7861 41.8442ZM34.1353 42.3856L33.137 43.5051L33.1503 43.517L33.1638 43.5285L34.1353 42.3856ZM33.8663 42.1457L32.8383 43.238L32.8529 43.2518L32.868 43.2653L33.8663 42.1457ZM4.04175 14.0756L2.98464 15.1397L2.99898 15.154L3.0137 15.1678L4.04175 14.0756ZM3.78476 13.8203L2.70268 14.8591L2.71502 14.8719L2.72765 14.8845L3.78476 13.8203ZM27.4643 16.8465L28.4924 15.7542L27.4643 16.8465ZM27.807 15.9824V17.4824V15.9824ZM38.6757 1.94727L38.6401 3.44685L39.0016 3.45541L39.0372 1.95583L39.0727 0.456256L38.7112 0.447689L38.6757 1.94727ZM39.0372 1.95583L38.9611 3.45391C41.8749 3.60175 44.1932 6.01316 44.1932 8.96481L45.6932 8.96481L47.1932 8.96481C47.1932 4.40757 43.6148 0.686172 39.1132 0.457762L39.0372 1.95583ZM45.6932 8.96481L44.1932 8.96481C44.1932 11.9165 41.8749 14.3279 38.9611 14.4757L39.0372 15.9738L39.1132 17.4719C43.6148 17.2435 47.1932 13.5221 47.1932 8.96481L45.6932 8.96481ZM39.0372 15.9738L39.0016 14.4742L38.6401 14.4828L38.6757 15.9824L38.7112 17.4819L39.0727 17.4734L39.0372 15.9738ZM1.83355 8.96481L3.33355 8.96481C3.33355 5.91755 5.80384 3.44727 8.85109 3.44727V1.94727V0.447266C4.14698 0.447265 0.333549 4.2607 0.333548 8.96481L1.83355 8.96481ZM8.85109 1.94727V3.44727L38.6757 3.44727V1.94727V0.447268L8.85109 0.447266V1.94727ZM43.4846 31.9244L42.4275 32.9886L42.6845 33.2439L43.7416 32.1797L44.7987 31.1154L44.5417 30.8602L43.4846 31.9244ZM43.7416 32.1797L42.6595 33.2185C44.6801 35.3232 44.7161 38.6671 42.6937 40.8162L43.7861 41.8442L44.8785 42.8721C48.0016 39.5533 47.9448 34.392 44.8237 31.1409L43.7416 32.1797ZM43.7861 41.8442L42.6938 40.8162C40.6709 42.9655 37.33 43.1324 35.1068 41.2427L34.1353 42.3856L33.1638 43.5285C36.5984 46.4478 41.7548 46.1911 44.8784 42.8722L43.7861 41.8442ZM34.1353 42.3856L35.1336 41.266L34.8646 41.0262L33.8663 42.1457L32.868 43.2653L33.137 43.5051L34.1353 42.3856ZM33.8663 42.1457L34.8944 41.0534L5.0698 12.9833L4.04175 14.0756L3.0137 15.1678L32.8383 43.238L33.8663 42.1457ZM4.04175 14.0756L5.09886 13.0114L4.84187 12.7561L3.78476 13.8203L2.72765 14.8845L2.98464 15.1397L4.04175 14.0756ZM3.78476 13.8203L4.86684 12.7815C2.84625 10.6767 2.81025 7.33283 4.83261 5.18368L3.74022 4.15573L2.64782 3.12778C-0.475238 6.44665 -0.418446 11.6079 2.70268 14.8591L3.78476 13.8203ZM9.72823 44.0525V42.5525C6.19652 42.5525 3.3335 39.6895 3.3335 36.1578H1.8335H0.333496C0.333496 41.3464 4.53966 45.5525 9.72823 45.5525V44.0525ZM17.623 36.1578H16.123C16.123 39.6895 13.2599 42.5525 9.72823 42.5525V44.0525V45.5525C14.9168 45.5525 19.123 41.3464 19.123 36.1578H17.623ZM9.72823 28.2631V29.7631C13.2599 29.7631 16.123 32.6261 16.123 36.1578H17.623H19.123C19.123 30.9692 14.9168 26.7631 9.72823 26.7631V28.2631ZM9.72823 28.2631V26.7631C4.53966 26.7631 0.333496 30.9692 0.333496 36.1578H1.8335H3.3335C3.3335 32.6261 6.19652 29.7631 9.72823 29.7631V28.2631ZM27.4643 16.8465L26.4363 17.9388L42.4565 33.0167L43.4846 31.9244L44.5126 30.8321L28.4924 15.7542L27.4643 16.8465ZM38.6757 15.9824V14.4824L27.807 14.4824V15.9824V17.4824L38.6757 17.4824V15.9824ZM27.4643 16.8465L28.4924 15.7542C29.1518 16.3748 28.7126 17.4824 27.807 17.4824V15.9824V14.4824C25.9958 14.4824 25.1174 16.6974 26.4363 17.9388L27.4643 16.8465Z"/>
    </clipPath>
  </defs>
  
  <g clip-path="url(#logoClip)">
    <rect width="48" height="46" fill="url(#logoGradient)"/>
  </g>
</svg>