<svg width="45" height="44" viewBox="0 0 45 44" fill="none" xmlns="http://www.w3.org/2000/svg">
<path d="M37.6757 0.947268L38.0372 0.955835C41.7448 1.14396 44.6932 4.21036 44.6932 7.96481C44.6932 11.7193 41.7448 14.7857 38.0371 14.9738L37.6757 14.9824L7.85109 14.9824C3.97541 14.9824 0.833548 11.8405 0.833548 7.96481C0.833549 4.08913 3.97541 0.947265 7.85109 0.947266L37.6757 0.947268Z" fill="#3C4EA7"/>
<path d="M37.6757 0.947268L38.0372 0.955835C41.7448 1.14396 44.6932 4.21036 44.6932 7.96481C44.6932 11.7193 41.7448 14.7857 38.0371 14.9738L37.6757 14.9824L7.85109 14.9824C3.97541 14.9824 0.833548 11.8405 0.833548 7.96481C0.833549 4.08913 3.97541 0.947265 7.85109 0.947266L37.6757 0.947268Z" fill="#3C4EA7"/>
<path d="M2.74022 3.15573C5.31351 0.421611 9.56218 0.20985 12.3911 2.61434L12.66 2.8542L42.4846 30.9244L42.7416 31.1797C45.3124 33.8576 45.3588 38.1102 42.7861 40.8442C40.2128 43.5783 35.9642 43.7901 33.1353 41.3856L32.8663 41.1457L3.04175 13.0756L2.78476 12.8203C0.2139 10.1423 0.167507 5.88974 2.74022 3.15573Z" fill="#4B61D1"/>
<path d="M0.833496 35.1578C0.833496 30.7977 4.36809 27.2631 8.72823 27.2631C13.0884 27.2631 16.623 30.7977 16.623 35.1578C16.623 39.518 13.0884 43.0525 8.72823 43.0525C4.36809 43.0525 0.833496 39.518 0.833496 35.1578Z" fill="black"/>
</svg>
