<svg width="146" height="37" fill="none" xmlns="http://www.w3.org/2000/svg"><path d="M.816 23.132h2.368c0 1.105.395 2.039 1.185 2.802.815.737 1.815 1.105 3 1.105 1.157 0 2.118-.329 2.881-.986.79-.685 1.184-1.514 1.184-2.487 0-2-1.526-3.382-4.579-4.145-3.842-.947-5.763-2.895-5.763-5.842 0-1.632.592-2.96 1.777-3.987 1.236-1.026 2.723-1.54 4.46-1.54 1.763 0 3.237.553 4.421 1.659 1.184 1.105 1.776 2.473 1.776 4.105h-2.329c0-1.027-.381-1.895-1.144-2.606-.737-.71-1.658-1.065-2.763-1.065-1.08 0-1.987.329-2.724.987-.737.631-1.105 1.407-1.105 2.329 0 1.947 1.486 3.276 4.46 3.986 3.921 1 5.882 2.974 5.882 5.921 0 1.71-.619 3.106-1.856 4.185-1.21 1.052-2.75 1.579-4.618 1.579-1.895 0-3.447-.566-4.658-1.698C1.434 26.276.816 24.842.816 23.132zM28.815 8.526v2.092h-6.04v15.908h6.04v2.132h-8.329v-18.04h-4.105V8.526h4.105v-5.92h2.29v5.92h6.04zM49.044 26.132c-2 2-4.526 3-7.578 3-3.053 0-5.593-1-7.619-3-2.026-2.027-3.04-4.54-3.04-7.54 0-2.974 1.014-5.474 3.04-7.5 2.079-2.026 4.618-3.04 7.618-3.04 3.027 0 5.553 1.014 7.58 3.04 2.026 2.026 3.039 4.526 3.039 7.5 0 3-1.013 5.513-3.04 7.54zm-13.5-1.58c1.58 1.58 3.553 2.369 5.922 2.369 2.368 0 4.328-.79 5.881-2.368 1.579-1.632 2.368-3.619 2.368-5.96 0-2.37-.789-4.343-2.368-5.922-1.526-1.605-3.487-2.408-5.882-2.408-2.368 0-4.342.803-5.92 2.408-1.58 1.579-2.369 3.553-2.369 5.921 0 2.342.79 4.329 2.368 5.96zM66.368 29.132c-3.053 0-5.592-1-7.619-3-2.026-2.027-3.04-4.54-3.04-7.54 0-2.974 1.014-5.474 3.04-7.5 2.08-2.026 4.619-3.04 7.619-3.04 2.526 0 4.71.724 6.553 2.172 1.868 1.42 3.105 3.276 3.71 5.565h-2.447a7.75 7.75 0 0 0-2.96-3.986c-1.422-1.027-3.04-1.54-4.856-1.54-2.369 0-4.342.803-5.921 2.408-1.58 1.579-2.369 3.553-2.369 5.921 0 2.342.79 4.329 2.369 5.96 1.579 1.58 3.552 2.369 5.92 2.369 1.817 0 3.435-.5 4.856-1.5a7.955 7.955 0 0 0 2.96-4.026h2.448c-.579 2.29-1.816 4.158-3.71 5.605-1.843 1.421-4.027 2.132-6.553 2.132zM97.32 28.658h-2.88l-7.856-9.08h-2.842v9.08h-2.29V.237h2.29v17.21h2.881l7.58-8.92h2.841l-8.565 9.947 8.842 10.184zM113.977 19.855V8.526h5.131v20.132h-5.131V26.21c-1.553 1.948-3.592 2.922-6.119 2.922-2.263 0-4.092-.698-5.486-2.093-1.395-1.447-2.093-3.315-2.093-5.605V8.526h5.132v11.408c0 1.29.382 2.316 1.145 3.08.763.762 1.763 1.144 3 1.144 1.316 0 2.381-.395 3.197-1.184.816-.79 1.224-1.83 1.224-3.119zM135.678 8.053c2.79 0 5.119 1.013 6.987 3.04 1.869 2.025 2.803 4.525 2.803 7.5 0 3-.934 5.512-2.803 7.539-1.842 2-4.171 3-6.987 3-2.684 0-4.868-1.04-6.552-3.119v10.145h-5.132V8.526h5.132v2.645c1.684-2.079 3.868-3.118 6.552-3.118zm-6.552 10.54c0 1.604.526 2.933 1.579 3.986 1.052 1.053 2.368 1.579 3.947 1.579 1.579 0 2.895-.526 3.947-1.58 1.053-1.052 1.579-2.38 1.579-3.986 0-1.579-.526-2.895-1.579-3.947-1.079-1.08-2.394-1.619-3.947-1.619s-2.868.54-3.947 1.619c-1.053 1.052-1.579 2.368-1.579 3.947z" fill="#fff"/></svg>