<svg width="146" height="37" viewBox="0 0 146 37" fill="none" xmlns="http://www.w3.org/2000/svg">
<path d="M0.815918 23.1316H3.18434C3.18434 24.2368 3.57908 25.171 4.36855 25.9342C5.18434 26.671 6.18434 27.0394 7.36855 27.0394C8.52644 27.0394 9.48697 26.7105 10.2501 26.0526C11.0396 25.3684 11.4343 24.5394 11.4343 23.5658C11.4343 21.5658 9.90802 20.1842 6.85539 19.421C3.01329 18.4737 1.09223 16.5263 1.09223 13.5789C1.09223 11.9473 1.68434 10.6184 2.86855 9.59208C4.10539 8.56576 5.59223 8.05261 7.32908 8.05261C9.09223 8.05261 10.5659 8.60524 11.7501 9.7105C12.9343 10.8158 13.5264 12.1842 13.5264 13.8158H11.1975C11.1975 12.7894 10.8159 11.921 10.0528 11.2105C9.31592 10.5 8.39487 10.1447 7.2896 10.1447C6.21065 10.1447 5.30276 10.4737 4.56592 11.1316C3.82908 11.7631 3.46065 12.5394 3.46065 13.4605C3.46065 15.4079 4.9475 16.7368 7.92118 17.4473C11.8422 18.4473 13.8028 20.421 13.8028 23.3684C13.8028 25.0789 13.1843 26.4737 11.9475 27.5526C10.737 28.6052 9.1975 29.1316 7.32908 29.1316C5.43434 29.1316 3.88171 28.5658 2.67118 27.4342C1.43434 26.2763 0.815918 24.8421 0.815918 23.1316Z" fill="black"/>
<path d="M28.8154 8.52629V10.6184H22.7759V26.5263H28.8154V28.6579H20.4865V10.6184H16.3812V8.52629H20.4865V2.60524H22.7759V8.52629H28.8154Z" fill="black"/>
<path d="M49.0444 26.1316C47.0444 28.1316 44.5181 29.1316 41.4655 29.1316C38.4129 29.1316 35.8734 28.1316 33.8471 26.1316C31.8207 24.1052 30.8076 21.5921 30.8076 18.5921C30.8076 15.6184 31.8207 13.1184 33.8471 11.0921C35.926 9.06576 38.4655 8.05261 41.4655 8.05261C44.4918 8.05261 47.0181 9.06576 49.0444 11.0921C51.0707 13.1184 52.0839 15.6184 52.0839 18.5921C52.0839 21.5921 51.0707 24.1052 49.0444 26.1316ZM35.5444 24.5526C37.1234 26.1316 39.0971 26.921 41.4655 26.921C43.8339 26.921 45.7944 26.1316 47.3471 24.5526C48.926 22.921 49.7155 20.9342 49.7155 18.5921C49.7155 16.2237 48.926 14.25 47.3471 12.671C45.8207 11.0658 43.8602 10.2631 41.4655 10.2631C39.0971 10.2631 37.1234 11.0658 35.5444 12.671C33.9655 14.25 33.176 16.2237 33.176 18.5921C33.176 20.9342 33.9655 22.921 35.5444 24.5526Z" fill="black"/>
<path d="M66.3678 29.1316C63.3152 29.1316 60.7757 28.1316 58.7494 26.1316C56.7231 24.1052 55.7099 21.5921 55.7099 18.5921C55.7099 15.6184 56.7231 13.1184 58.7494 11.0921C60.8284 9.06576 63.3678 8.05261 66.3678 8.05261C68.8941 8.05261 71.0784 8.77629 72.9205 10.2237C74.7889 11.6447 76.0257 13.5 76.631 15.7894H74.1836C73.631 14.1316 72.6441 12.8026 71.2231 11.8026C69.802 10.7763 68.1836 10.2631 66.3678 10.2631C63.9994 10.2631 62.0257 11.0658 60.4468 12.671C58.8678 14.25 58.0784 16.2237 58.0784 18.5921C58.0784 20.9342 58.8678 22.921 60.4468 24.5526C62.0257 26.1316 63.9994 26.921 66.3678 26.921C68.1836 26.921 69.802 26.421 71.2231 25.421C72.6441 24.3947 73.631 23.0526 74.1836 21.3947H76.631C76.052 23.6842 74.8152 25.5526 72.9205 27C71.0784 28.421 68.8941 29.1316 66.3678 29.1316Z" fill="black"/>
<path d="M97.3207 28.6579H94.4392L86.5839 19.5789H83.7418V28.6579H81.4523V0.236816H83.7418V17.4473H86.6234L94.2023 8.52629H97.0444L88.4786 18.4737L97.3207 28.6579Z" fill="black"/>
<path d="M113.977 19.8552V8.52629H119.108V28.6579H113.977V26.2105C112.424 28.1579 110.385 29.1316 107.858 29.1316C105.595 29.1316 103.766 28.4342 102.372 27.0394C100.977 25.5921 100.279 23.7237 100.279 21.4342V8.52629H105.411V19.9342C105.411 21.2237 105.793 22.25 106.556 23.0131C107.319 23.7763 108.319 24.1579 109.556 24.1579C110.872 24.1579 111.937 23.7631 112.753 22.9737C113.569 22.1842 113.977 21.1447 113.977 19.8552Z" fill="black"/>
<path d="M135.678 8.05261C138.468 8.05261 140.797 9.06576 142.665 11.0921C144.534 13.1184 145.468 15.6184 145.468 18.5921C145.468 21.5921 144.534 24.1052 142.665 26.1316C140.823 28.1316 138.494 29.1316 135.678 29.1316C132.994 29.1316 130.81 28.0921 129.126 26.0131V36.1579H123.994V8.52629H129.126V11.171C130.81 9.09208 132.994 8.05261 135.678 8.05261ZM129.126 18.5921C129.126 20.1973 129.652 21.5263 130.705 22.5789C131.757 23.6316 133.073 24.1579 134.652 24.1579C136.231 24.1579 137.547 23.6316 138.599 22.5789C139.652 21.5263 140.178 20.1973 140.178 18.5921C140.178 17.0131 139.652 15.6973 138.599 14.6447C137.52 13.5658 136.205 13.0263 134.652 13.0263C133.099 13.0263 131.784 13.5658 130.705 14.6447C129.652 15.6973 129.126 17.0131 129.126 18.5921Z" fill="black"/>
</svg>
