<svg width="93" height="48" viewBox="0 0 93 48" fill="none" xmlns="http://www.w3.org/2000/svg">
<path d="M1 47L6.8157 43.7633C12.1627 40.7874 16.1059 35.8064 17.7754 29.9192L23.0789 11.2168C23.3861 10.1335 24.9556 10.2428 25.1097 11.3581L25.941 17.3721C26.1927 19.1938 28.5059 19.8243 29.6473 18.3824V18.3824C30.5516 17.24 32.3181 17.3512 33.072 18.598L37.1242 25.2992C38.1878 27.0582 40.7996 26.8609 41.5869 24.9621L46.2275 13.7701L50.1093 4.40849C51.3386 1.44367 55.2451 0.784646 57.379 3.18208L62.8261 9.30172C64.2271 10.8758 66.5969 11.1225 68.2922 9.87093V9.87093C70.5551 8.20027 73.79 9.26927 74.6119 11.9593L75.4299 14.6367C76.9719 19.6839 83.7822 20.4817 86.449 15.9276L92 6.44828" stroke="black" stroke-width="2" stroke-linecap="round"/>
</svg>
