<svg width="312" height="312" viewBox="0 0 312 312" fill="none" xmlns="http://www.w3.org/2000/svg">
<path d="M34.0821 226.034L29.4423 228.73L24.6868 225.984L24.7428 220.641L34.0821 226.034Z" fill="white"/>
<path d="M29.4424 229.949C29.2316 229.949 29.0207 229.894 28.833 229.786L24.0775 227.04C23.696 226.819 23.4632 226.411 23.4681 225.971L23.5242 220.628C23.529 220.195 23.763 219.797 24.1396 219.583C24.515 219.367 24.9781 219.369 25.3523 219.586L34.6916 224.979C35.0682 225.197 35.2997 225.598 35.3009 226.033C35.3009 226.467 35.0706 226.87 34.694 227.087L30.0542 229.783C29.8653 229.894 29.6545 229.949 29.4424 229.949ZM25.9129 225.285L29.4412 227.323L31.6508 226.038L25.9397 222.74L25.9129 225.285Z" fill="#FC6A03"/>
<path d="M20.1641 234.123L10.7688 239.583L10.8236 228.73L20.1641 234.123Z" fill="white"/>
<path d="M10.7688 240.802C10.558 240.802 10.3471 240.747 10.1582 240.637C9.77919 240.418 9.54763 240.013 9.55007 239.577L9.60491 228.724C9.60735 228.29 9.84013 227.889 10.2167 227.674C10.5933 227.455 11.0564 227.458 11.433 227.675L20.7735 233.068C21.1501 233.286 21.3817 233.687 21.3829 234.122C21.3841 234.556 21.1526 234.959 20.7772 235.176L11.3818 240.636C11.1929 240.747 10.9809 240.802 10.7688 240.802ZM12.0314 230.834L11.9985 237.459L17.7328 234.127L12.0314 230.834Z" fill="#FC6A03"/>
<path d="M17.8949 246.262L17.84 265.811L8.49951 260.418L8.55557 240.869L17.8949 246.262Z" fill="white"/>
<path d="M17.84 267.029C17.6292 267.029 17.4183 266.975 17.2306 266.866L7.89014 261.474C7.51111 261.255 7.27955 260.852 7.28077 260.415L7.33683 240.865C7.33805 240.431 7.57083 240.029 7.94742 239.812C8.32524 239.594 8.78958 239.597 9.16495 239.814L18.5055 245.207C18.8845 245.426 19.116 245.829 19.1148 246.266L19.0588 265.814C19.0575 266.248 18.8248 266.65 18.4482 266.867C18.2593 266.976 18.0496 267.029 17.84 267.029ZM9.7207 259.717L16.6274 263.703L16.6749 246.965L9.76824 242.979L9.7207 259.717Z" fill="#FC6A03"/>
<path d="M24.8637 242.212L24.8089 261.761L17.8401 265.811L17.8949 246.262L24.8637 242.212Z" fill="white"/>
<path d="M17.8401 267.029C17.6292 267.029 17.4184 266.975 17.2307 266.866C16.8517 266.647 16.6201 266.243 16.6213 265.807L16.6774 246.258C16.6786 245.826 16.909 245.425 17.2831 245.209L24.2519 241.159C24.6297 240.937 25.0965 240.938 25.4743 241.157C25.8534 241.376 26.0849 241.779 26.0837 242.216L26.0277 261.766C26.0264 262.198 25.7961 262.599 25.4207 262.815L18.4519 266.864C18.2618 266.975 18.0522 267.029 17.8401 267.029ZM19.1125 246.964L19.0649 263.69L23.5926 261.06L23.6401 244.334L19.1125 246.964Z" fill="#FC6A03"/>
<path d="M99.4718 263.786L99.417 269.129L94.832 266.483L99.4718 263.786Z" fill="white"/>
<path d="M99.4158 270.348C99.2049 270.348 98.9941 270.293 98.8064 270.185L94.2227 267.538C93.8461 267.319 93.6133 266.918 93.6133 266.483C93.6133 266.049 93.8436 265.646 94.2202 265.429L98.86 262.733C99.239 262.511 99.7058 262.511 100.085 262.733C100.465 262.955 100.695 263.361 100.691 263.8L100.635 269.143C100.63 269.575 100.396 269.974 100.019 270.188C99.8326 270.294 99.6242 270.348 99.4158 270.348ZM97.2647 266.478L98.2189 267.031L98.2311 265.917L97.2647 266.478Z" fill="#FC6A03"/>
<path d="M108.822 269.185L108.766 288.734L104.119 286.05L104.182 271.881L99.4304 269.129L99.4719 263.786L108.822 269.185Z" fill="white"/>
<path d="M108.766 289.952C108.555 289.952 108.344 289.897 108.157 289.788L103.51 287.106C103.131 286.886 102.898 286.482 102.9 286.044L102.96 272.582L98.8211 270.183C98.4408 269.964 98.2093 269.557 98.2129 269.119L98.2544 263.777C98.258 263.344 98.4908 262.943 98.8674 262.728C99.2452 262.511 99.7071 262.514 100.083 262.731L109.433 268.129C109.812 268.348 110.043 268.751 110.042 269.188L109.986 288.737C109.985 289.17 109.752 289.573 109.375 289.79C109.187 289.898 108.976 289.952 108.766 289.952ZM105.341 285.348L107.553 286.627L107.601 269.887L100.674 265.89L100.654 268.431L104.792 270.828C105.171 271.048 105.402 271.452 105.4 271.888L105.341 285.348Z" fill="#FC6A03"/>
<path d="M118.101 263.792L118.046 283.341L108.766 288.734L108.822 269.185L118.101 263.792Z" fill="white"/>
<path d="M108.766 289.952C108.555 289.952 108.344 289.897 108.157 289.788C107.778 289.569 107.546 289.166 107.547 288.729L107.603 269.181C107.605 268.748 107.835 268.347 108.21 268.131L117.489 262.739C117.865 262.518 118.331 262.519 118.71 262.737C119.089 262.956 119.32 263.36 119.319 263.796L119.263 283.345C119.262 283.778 119.032 284.178 118.656 284.394L109.378 289.786C109.189 289.897 108.978 289.952 108.766 289.952ZM110.038 269.886L109.991 286.612L116.828 282.639L116.876 265.913L110.038 269.886Z" fill="#FC6A03"/>
<path d="M71.5735 269.179L64.6047 273.229L64.5718 284.718L24.8088 261.761L24.8637 242.212L71.5735 269.179Z" fill="white"/>
<path d="M64.5718 285.936C64.3609 285.936 64.1501 285.881 63.9624 285.773L24.1982 262.816C23.8192 262.597 23.5877 262.193 23.5889 261.757L23.6449 242.207C23.6462 241.773 23.8789 241.371 24.2555 241.154C24.6333 240.936 25.0977 240.938 25.4731 241.155L72.1817 268.124C72.5583 268.342 72.7898 268.743 72.791 269.178C72.7922 269.612 72.5607 270.015 72.1853 270.232L65.8198 273.931L65.7905 284.721C65.7893 285.155 65.5565 285.557 65.1799 285.774C64.9922 285.882 64.7814 285.936 64.5718 285.936ZM26.0288 261.059L63.3591 282.61L63.3847 273.227C63.3859 272.794 63.6163 272.393 63.9904 272.177L69.1409 269.184L26.0763 244.32L26.0288 261.059Z" fill="#FC6A03"/>
<path d="M104.182 271.881L104.126 291.43L94.8479 296.823L94.9028 277.273L104.182 271.881Z" fill="white"/>
<path d="M94.8467 298.042C94.6358 298.042 94.425 297.987 94.2373 297.878C93.8583 297.659 93.6267 297.256 93.6279 296.819L93.684 277.271C93.6852 276.838 93.9156 276.437 94.2897 276.221L103.568 270.828C103.945 270.607 104.411 270.608 104.79 270.826C105.17 271.045 105.401 271.449 105.4 271.885L105.345 291.434C105.344 291.866 105.113 292.267 104.739 292.483L95.4597 297.876C95.2696 297.987 95.0587 298.042 94.8467 298.042ZM96.1191 277.976L96.0715 294.702L102.91 290.728L102.956 274.002L96.1191 277.976Z" fill="#FC6A03"/>
<path d="M94.9029 277.273L94.848 296.823L85.4978 291.424L85.5539 271.875L94.9029 277.273Z" fill="white"/>
<path d="M94.8468 298.042C94.636 298.042 94.4251 297.987 94.2375 297.878L84.8884 292.479C84.5094 292.26 84.2778 291.857 84.2791 291.42L84.3339 271.872C84.3351 271.438 84.5679 271.036 84.9445 270.819C85.3211 270.602 85.7854 270.603 86.162 270.82L95.5123 276.219C95.8913 276.438 96.1229 276.842 96.1217 277.278L96.0656 296.827C96.0644 297.261 95.8316 297.663 95.455 297.88C95.2673 297.988 95.0565 298.042 94.8468 298.042ZM86.719 290.722L93.6342 294.715L93.6817 277.976L86.7653 273.984L86.719 290.722Z" fill="#FC6A03"/>
<path d="M73.9451 278.622L73.8891 298.171L64.5486 292.778L64.6046 273.229L73.9451 278.622Z" fill="white"/>
<path d="M73.8891 299.388C73.6782 299.388 73.4674 299.334 73.2797 299.225L63.9404 293.833C63.5614 293.614 63.3298 293.211 63.3311 292.774L63.3859 273.226C63.3871 272.792 63.6199 272.39 63.9965 272.173C64.3731 271.956 64.8374 271.957 65.214 272.174L74.5545 277.566C74.9336 277.785 75.1651 278.188 75.1639 278.625L75.1078 298.173C75.1066 298.607 74.8738 299.009 74.4972 299.226C74.3096 299.335 74.0987 299.388 73.8891 299.388ZM65.771 292.076L72.6764 296.063L72.724 279.324L65.8173 275.338L65.771 292.076Z" fill="#FC6A03"/>
<path d="M114.016 249.767C113.995 250.017 113.968 250.267 113.925 250.517C113.893 250.702 113.852 250.886 113.808 251.07C113.75 251.316 113.683 251.561 113.605 251.805C113.545 251.989 113.48 252.172 113.41 252.355C113.316 252.598 113.208 252.838 113.093 253.08C113.006 253.26 112.92 253.439 112.822 253.617C112.689 253.86 112.539 254.099 112.386 254.337C112.275 254.509 112.169 254.68 112.047 254.849C111.871 255.094 111.674 255.334 111.475 255.576C111.345 255.733 111.224 255.891 111.084 256.047C110.849 256.308 110.588 256.563 110.325 256.818C110.193 256.946 110.074 257.076 109.935 257.201C109.522 257.576 109.082 257.942 108.606 258.298C108.603 258.301 108.602 258.303 108.598 258.306L114.035 261.445L114.07 249.014C114.07 249.083 114.057 249.152 114.055 249.221C114.052 249.404 114.032 249.586 114.016 249.767Z" fill="white"/>
<path d="M114.035 262.665C113.824 262.665 113.613 262.61 113.425 262.502L107.988 259.362C107.659 259.173 107.439 258.841 107.39 258.466C107.34 258.09 107.468 257.713 107.736 257.445C107.793 257.388 107.863 257.329 107.931 257.285C108.319 256.992 108.731 256.649 109.117 256.299C109.183 256.24 109.243 256.178 109.302 256.118L109.479 255.941C109.735 255.693 109.968 255.466 110.179 255.233C110.261 255.14 110.338 255.045 110.415 254.949L110.532 254.805C110.718 254.58 110.898 254.363 111.057 254.141C111.136 254.03 111.208 253.917 111.28 253.806L111.362 253.678C111.501 253.462 111.635 253.249 111.753 253.033C111.832 252.889 111.903 252.744 111.974 252.599C112.096 252.345 112.191 252.133 112.272 251.918C112.336 251.755 112.393 251.594 112.444 251.434C112.514 251.221 112.571 251.005 112.622 250.792C112.657 250.636 112.695 250.474 112.723 250.311C112.76 250.098 112.783 249.882 112.801 249.667C112.82 249.473 112.832 249.333 112.835 249.192C112.837 249.161 112.846 249.036 112.85 249.004C112.85 248.999 112.851 248.994 112.851 248.989C112.867 248.329 113.406 247.797 114.07 247.797C114.743 247.799 115.289 248.343 115.289 249.016C115.289 249.017 115.289 249.019 115.289 249.02C115.289 249.021 115.289 249.022 115.289 249.024L115.253 261.451C115.252 261.885 115.019 262.287 114.643 262.504C114.455 262.611 114.244 262.665 114.035 262.665ZM110.728 258.129L112.823 259.338L112.834 255.836C112.699 256.011 112.556 256.184 112.412 256.357L112.315 256.477C112.21 256.607 112.105 256.737 111.991 256.864C111.746 257.137 111.474 257.401 111.202 257.666L111.04 257.828C110.948 257.922 110.855 258.014 110.754 258.107C110.744 258.113 110.735 258.122 110.728 258.129Z" fill="#FC6A03"/>
<path d="M108.822 269.185L99.4732 263.788L94.8334 266.483L104.182 271.881L94.9029 277.274L85.5538 271.876L73.9453 278.622L64.6048 273.229L71.5736 269.179L24.8638 242.212L17.8949 246.262L8.55444 240.869L20.163 234.123L10.8225 228.73L20.1021 223.337L29.4426 228.73L34.0824 226.034L24.7419 220.641L34.0214 215.248L43.524 220.735C53.8286 216.088 68.7875 216.498 78.2901 221.983C83.8793 225.21 86.4216 229.531 85.978 233.758C93.2734 233.487 100.741 234.946 106.32 238.167C115.832 243.659 116.587 252.323 108.599 258.306L118.102 263.792L108.822 269.185Z" fill="#FC6A03"/>
<path d="M73.9453 279.84C73.7344 279.84 73.5248 279.785 73.3359 279.676L63.9954 274.285C63.6188 274.066 63.3872 273.666 63.386 273.232C63.3848 272.797 63.6164 272.393 63.9917 272.176L69.1422 269.183L24.8674 243.618L18.5092 247.314C18.1302 247.534 17.6634 247.533 17.2868 247.316L7.94629 241.923C7.5697 241.705 7.33814 241.304 7.33692 240.869C7.3357 240.435 7.56726 240.032 7.94386 239.815L17.7329 234.126L10.2144 229.784C9.83779 229.566 9.60623 229.165 9.60501 228.73C9.60379 228.296 9.83536 227.893 10.2119 227.676L19.4915 222.284C19.8681 222.062 20.3337 222.064 20.7127 222.282L29.4402 227.321L31.6498 226.037L24.1325 221.696C23.7559 221.477 23.5244 221.076 23.5231 220.641C23.5219 220.207 23.7535 219.804 24.1289 219.587L33.4072 214.194C33.7838 213.972 34.2506 213.974 34.6296 214.192L43.5984 219.37C48.2296 217.397 53.9114 216.314 59.6798 216.314C66.9204 216.314 73.7454 217.953 78.8983 220.927C84.1377 223.951 87.109 228.112 87.2406 232.508C94.664 232.438 101.679 234.079 106.927 237.109C112.049 240.067 115.013 244.069 115.271 248.381C115.48 251.874 113.878 255.284 110.73 258.128L118.709 262.735C119.085 262.953 119.317 263.354 119.318 263.789C119.319 264.223 119.088 264.626 118.711 264.843L109.433 270.235C109.054 270.455 108.588 270.454 108.212 270.237L99.4732 265.192L97.2636 266.476L104.791 270.822C105.167 271.04 105.399 271.441 105.4 271.876C105.401 272.31 105.17 272.714 104.794 272.931L95.5159 278.324C95.1369 278.544 94.6701 278.543 94.2935 278.326L85.5551 273.279L74.5583 279.67C74.3682 279.785 74.1573 279.84 73.9453 279.84ZM67.0362 273.227L73.9428 277.213L84.9396 270.822C85.3186 270.6 85.783 270.602 86.162 270.82L94.9004 275.867L101.75 271.885L94.2228 267.539C93.8462 267.321 93.6134 266.92 93.6134 266.485C93.6134 266.051 93.8438 265.647 94.2204 265.43L98.8602 262.735C99.2368 262.513 99.7023 262.514 100.081 262.732L108.82 267.778L115.669 263.797L107.989 259.362C107.634 259.158 107.405 258.788 107.382 258.379C107.356 257.97 107.54 257.577 107.867 257.331C111.26 254.79 113.024 251.665 112.838 248.529C112.631 245.061 110.098 241.756 105.708 239.222C100.931 236.463 94.5336 234.945 87.694 234.945C87.1358 234.945 86.5776 234.956 86.0219 234.975C85.6721 235.004 85.3284 234.848 85.0859 234.59C84.8445 234.332 84.7275 233.982 84.7641 233.631C85.1724 229.736 82.5911 225.876 77.6795 223.04C72.8923 220.275 66.4999 218.752 59.6798 218.752C54.0077 218.752 48.4466 219.85 44.0237 221.845C43.6679 222.009 43.2535 221.987 42.9134 221.791L34.0215 216.656L27.1721 220.638L34.6893 224.979C35.0659 225.197 35.2975 225.598 35.2987 226.033C35.2999 226.467 35.0684 226.87 34.6918 227.087L30.052 229.783C29.673 230.004 29.2074 230.003 28.8308 229.786L20.1033 224.746L13.2527 228.727L20.7712 233.068C21.1478 233.286 21.3794 233.687 21.3806 234.122C21.3818 234.556 21.1502 234.959 20.7736 235.176L10.9846 240.865L17.8913 244.853L24.2495 241.158C24.6273 240.936 25.0941 240.937 25.4719 241.155L72.1805 268.124C72.5571 268.342 72.7887 268.743 72.7899 269.178C72.7911 269.612 72.5595 270.015 72.1842 270.232L67.0362 273.227Z" fill="#FC6A03"/>
<path d="M85.5538 271.875L85.4978 291.424L73.8892 298.171L73.9452 278.622L85.5538 271.875Z" fill="white"/>
<path d="M73.8892 299.388C73.6783 299.388 73.4675 299.334 73.2798 299.225C72.9008 299.006 72.6692 298.602 72.6704 298.166L72.7265 278.617C72.7277 278.185 72.958 277.784 73.3322 277.568L84.9396 270.822C85.3186 270.6 85.7829 270.602 86.162 270.82C86.541 271.039 86.7726 271.443 86.7714 271.879L86.7165 291.428C86.7153 291.86 86.4849 292.261 86.1096 292.477L74.501 299.223C74.3121 299.334 74.1012 299.388 73.8892 299.388ZM75.1615 279.323L75.114 296.049L84.2814 290.722L84.3278 273.996L75.1615 279.323Z" fill="#FC6A03"/>
<path d="M104.937 20.3896L104.892 30.3225L96.3408 25.3853L104.937 20.3896Z" fill="white"/>
<path d="M104.892 31.5412C104.681 31.5412 104.47 31.4864 104.282 31.3779L95.7302 26.4408C95.3536 26.2226 95.1221 25.8216 95.1209 25.3866C95.1196 24.9527 95.3512 24.5493 95.7278 24.3323L104.325 19.3367C104.701 19.1149 105.166 19.1149 105.547 19.3355C105.926 19.5548 106.158 19.9582 106.155 20.3958L106.11 30.3274C106.108 30.7612 105.876 31.1622 105.499 31.3779C105.311 31.4876 105.101 31.5412 104.892 31.5412ZM98.7722 25.3817L103.683 28.2165L103.708 22.5127L98.7722 25.3817Z" fill="#FC6A03"/>
<path d="M77.1481 30.2202L53.168 32.0349L53.2131 16.4008L77.1481 30.2202Z" fill="white"/>
<path d="M53.168 33.2524C52.8609 33.2524 52.5647 33.1366 52.338 32.9258C52.0894 32.6942 51.948 32.37 51.9492 32.03L51.9943 16.3971C51.9955 15.9632 52.2283 15.561 52.6049 15.3441C52.9815 15.1272 53.4459 15.1284 53.8224 15.3453L77.7575 29.1647C78.2206 29.4329 78.4546 29.9703 78.3364 30.4919C78.2182 31.0124 77.7733 31.395 77.2407 31.4353L53.2594 33.2488C53.2289 33.2512 53.1984 33.2524 53.168 33.2524ZM54.4257 18.5092L54.3904 30.7199L73.1214 29.3037L54.4257 18.5092Z" fill="#FC6A03"/>
<path d="M111.903 34.37L111.858 50.2662L98.1204 58.2502L98.1654 42.354L111.903 34.37Z" fill="white"/>
<path d="M98.1204 59.4689C97.9095 59.4689 97.6987 59.4141 97.511 59.3056C97.132 59.0862 96.9004 58.6828 96.9016 58.2465L96.9467 42.3503C96.9479 41.9177 97.1783 41.5167 97.5524 41.301L111.289 33.317C111.669 33.0952 112.134 33.0964 112.511 33.3145C112.89 33.5339 113.122 33.9373 113.121 34.3736L113.077 50.2698C113.076 50.7024 112.845 51.1034 112.471 51.3191L98.7334 59.3032C98.5421 59.4141 98.3324 59.4689 98.1204 59.4689ZM99.3818 43.056L99.3452 56.1295L110.643 49.5641L110.678 36.4906L99.3818 43.056Z" fill="#FC6A03"/>
<path d="M98.1655 42.354L98.1204 58.2502L67.2421 60.3245L43.2998 46.5002L98.1655 42.354Z" fill="white"/>
<path d="M67.2433 61.5432C67.03 61.5432 66.8191 61.4871 66.6339 61.3799L42.6891 47.5568C42.226 47.2887 41.992 46.7512 42.1102 46.2296C42.2284 45.7092 42.6733 45.3265 43.2059 45.2863L98.0728 41.1401C98.4079 41.1108 98.7455 41.2303 98.9941 41.4631C99.2428 41.6958 99.3841 42.0188 99.3829 42.3588L99.3378 58.255C99.3354 58.8948 98.8394 59.425 98.2007 59.4677L67.3237 61.542C67.2981 61.542 67.2701 61.5432 67.2433 61.5432ZM47.3265 47.4179L67.5309 59.0825L96.9052 57.1094L96.943 43.669L47.3265 47.4179Z" fill="#FC6A03"/>
<path d="M18.9174 48.3478L8.54461 42.3589L8.49951 58.255L15.5012 62.2976L15.5183 56.3355L24.1068 51.3435L18.9174 48.3478Z" fill="white"/>
<path d="M15.5025 63.5151C15.2916 63.5151 15.0808 63.4603 14.8931 63.3518L7.89136 59.3105C7.51233 59.0911 7.28077 58.6877 7.28199 58.2514L7.32586 42.3552C7.32708 41.9213 7.55986 41.5191 7.93646 41.3022C8.31427 41.084 8.77861 41.0865 9.15399 41.3034L24.7174 50.288C25.094 50.5062 25.3256 50.9072 25.3268 51.341C25.328 51.7761 25.0965 52.1795 24.7211 52.3965L16.7346 57.0375L16.72 62.3C16.7188 62.7339 16.486 63.1361 16.1094 63.353C15.9217 63.4615 15.7121 63.5151 15.5025 63.5151ZM9.72193 57.553L14.2898 60.1892L14.3008 56.3318C14.302 55.8992 14.5323 55.4982 14.9065 55.2825L21.6766 51.3471L9.75849 44.4661L9.72193 57.553Z" fill="#FC6A03"/>
<path d="M29.3462 64.3184L29.3011 80.2145L15.4731 72.2305L15.5182 56.3356L29.3462 64.3184Z" fill="white"/>
<path d="M29.3011 81.4321C29.0902 81.4321 28.8794 81.3772 28.6917 81.2688L14.8638 73.2859C14.4847 73.0666 14.2532 72.6632 14.2544 72.2269L14.2995 56.3307C14.3007 55.8968 14.5335 55.4946 14.9101 55.2777C15.2867 55.0608 15.751 55.062 16.1276 55.2789L29.9556 63.2629C30.3346 63.4823 30.5661 63.8857 30.5649 64.322L30.5198 80.217C30.5186 80.6509 30.2858 81.053 29.9092 81.27C29.7216 81.3784 29.5107 81.4321 29.3011 81.4321ZM16.6943 71.5285L28.0884 78.1049L28.125 65.0204L16.7309 58.4428L16.6943 71.5285Z" fill="#FC6A03"/>
<path d="M37.9347 59.3276L37.8896 75.2226L29.301 80.2146L29.3461 64.3184L37.9347 59.3276Z" fill="white"/>
<path d="M29.301 81.4321C29.0902 81.4321 28.8793 81.3772 28.6917 81.2688C28.3126 81.0494 28.0811 80.646 28.0823 80.2097L28.1274 64.3147C28.1286 63.8821 28.3589 63.4811 28.7331 63.2654L37.3216 58.2734C37.6994 58.0516 38.1662 58.0528 38.544 58.2709C38.9231 58.4903 39.1546 58.8937 39.1534 59.33L39.1083 75.2262C39.1071 75.6589 38.8767 76.0598 38.5014 76.2755L29.9128 81.2663C29.7239 81.3772 29.5131 81.4321 29.301 81.4321ZM30.5624 65.0216L30.5259 78.0939L36.6732 74.5218L36.7098 61.4494L30.5624 65.0216Z" fill="#FC6A03"/>
<path d="M53.497 68.3123L53.4519 84.2084L37.8896 75.2226L37.9347 59.3276L53.497 68.3123Z" fill="white"/>
<path d="M53.4519 85.4271C53.241 85.4271 53.0302 85.3723 52.8425 85.2638L37.2791 76.2792C36.9 76.0598 36.6685 75.6564 36.6697 75.2201L36.7148 59.324C36.716 58.8901 36.9488 58.4879 37.3254 58.271C37.7032 58.0528 38.1675 58.0552 38.5429 58.2722L54.1063 67.2568C54.4854 67.4762 54.7169 67.8796 54.7157 68.3159L54.6706 84.212C54.6694 84.6459 54.4366 85.0481 54.06 85.265C53.8723 85.3735 53.6615 85.4271 53.4519 85.4271ZM39.1108 74.5218L52.2392 82.1012L52.2758 69.0155L39.1474 61.436L39.1108 74.5218Z" fill="#FC6A03"/>
<path d="M67.2421 60.3246L67.197 76.2195L53.4519 84.2084L53.497 68.3123L67.2421 60.3246Z" fill="white"/>
<path d="M53.4519 85.4272C53.2411 85.4272 53.0302 85.3723 52.8425 85.2638C52.4635 85.0445 52.2319 84.6411 52.2332 84.2047L52.2783 68.3086C52.2795 67.8759 52.5098 67.475 52.8852 67.2592L66.6303 59.2716C67.0081 59.0497 67.4736 59.051 67.8514 59.2691C68.2305 59.4885 68.462 59.8919 68.4608 60.3282L68.4157 76.2231C68.4145 76.6558 68.1842 77.0568 67.81 77.2725L54.0649 85.2614C53.876 85.3723 53.664 85.4272 53.4519 85.4272ZM54.7145 69.0142L54.678 82.0878L65.9819 75.5175L66.0184 62.4452L54.7145 69.0142Z" fill="#FC6A03"/>
<path d="M104.937 20.3897L96.341 25.3854L101.53 28.3823L111.903 34.37L98.1655 42.3541L43.2998 46.5002L67.2421 60.3245L53.4971 68.3122L37.9348 59.3276L29.3463 64.3184L15.5184 56.3356L24.1069 51.3436L18.9175 48.3479L8.54468 42.3589L22.2897 34.3712L77.1481 30.2202L53.2131 16.4008L66.9508 8.41675L82.5131 17.4026L91.1101 12.4069L104.937 20.3897Z" fill="#FC6A03"/>
<path d="M53.4983 69.5309C53.2874 69.5309 53.0766 69.4761 52.8889 69.3676L37.9373 60.7352L29.9593 65.3726C29.5803 65.5932 29.1135 65.5919 28.7369 65.375L14.909 57.391C14.5324 57.1728 14.3008 56.7718 14.2996 56.3367C14.2984 55.9029 14.53 55.4995 14.9053 55.2825L21.6755 51.3472L7.93531 43.4143C7.55871 43.1962 7.32715 42.7952 7.32593 42.3601C7.32471 41.925 7.55628 41.5228 7.93287 41.3059L21.6779 33.3182C21.8364 33.2256 22.0143 33.1707 22.1983 33.1561L73.1214 29.3024L52.6037 17.4562C52.2271 17.238 51.9956 16.8371 51.9943 16.402C51.9931 15.9681 52.2247 15.5647 52.6001 15.3477L66.3366 7.36372C66.7132 7.1419 67.18 7.14312 67.559 7.36128L82.5106 15.9937L90.4983 11.3527C90.8749 11.1309 91.3405 11.1321 91.7195 11.3502L105.547 19.3343C105.924 19.5524 106.156 19.9534 106.157 20.3885C106.158 20.8224 105.926 21.2258 105.55 21.4427L98.7724 25.3805L112.511 33.3133C112.888 33.5315 113.12 33.9325 113.121 34.3663C113.122 34.8014 112.89 35.2048 112.515 35.4218L98.7785 43.4058C98.6188 43.4984 98.4409 43.5533 98.2569 43.5679L47.3265 47.4167L67.8527 59.2678C68.2293 59.486 68.4609 59.887 68.4621 60.3221C68.4621 60.7559 68.2317 61.1593 67.8551 61.3763L54.1101 69.364C53.92 69.4761 53.7091 69.5309 53.4983 69.5309ZM37.9348 58.1088C38.1457 58.1088 38.3565 58.1637 38.5442 58.2721L53.4958 66.9045L64.8119 60.3282L42.6892 47.5569C42.2261 47.2887 41.9921 46.7513 42.1103 46.2297C42.2285 45.7092 42.6733 45.3266 43.2059 45.2863L97.7937 41.1609L109.469 34.3749L95.7304 26.442C95.3538 26.2239 95.121 25.8229 95.121 25.3878C95.121 24.9539 95.3514 24.5505 95.728 24.3336L102.505 20.3958L91.1113 13.817L83.1236 18.458C82.7446 18.6786 82.2791 18.6786 81.9025 18.4604L66.9533 9.82559L55.6457 16.3983L77.7575 29.1647C78.2206 29.4328 78.4546 29.9703 78.3364 30.4919C78.2182 31.0123 77.7733 31.395 77.2407 31.4352L22.6615 35.5656L10.9773 42.3552L24.7175 50.2881C25.0941 50.5062 25.3257 50.9072 25.3269 51.3411C25.3281 51.7762 25.0965 52.1796 24.7212 52.3965L17.951 56.3319L29.3451 62.9107L37.323 58.2733C37.5107 58.1637 37.7228 58.1088 37.9348 58.1088Z" fill="#FC6A03"/>
<path d="M236.857 238.199L226.771 241.41L226.81 234.753L236.857 238.199Z" fill="white"/>
<path d="M226.769 242.629C226.512 242.629 226.259 242.548 226.047 242.392C225.732 242.162 225.548 241.794 225.551 241.403L225.59 234.746C225.592 234.353 225.782 233.987 226.103 233.759C226.424 233.53 226.834 233.472 227.203 233.599L237.252 237.044C237.749 237.216 238.082 237.686 238.076 238.211C238.07 238.737 237.727 239.2 237.227 239.359L227.14 242.57C227.018 242.609 226.894 242.629 226.769 242.629ZM228.019 236.457L227.998 239.74L232.975 238.156L228.019 236.457Z" fill="#FC6A03"/>
<path d="M303.501 233.257L303.46 247.165L288.917 251.794V246.735L275.551 242.152L303.501 233.257Z" fill="white"/>
<path d="M288.918 253.014C288.662 253.014 288.41 252.933 288.199 252.78C287.885 252.551 287.7 252.185 287.7 251.795V247.605L275.156 243.305C274.659 243.133 274.326 242.664 274.332 242.139C274.338 241.612 274.681 241.149 275.181 240.991L303.13 232.096C303.503 231.979 303.908 232.045 304.222 232.274C304.535 232.505 304.721 232.871 304.719 233.261L304.68 247.17C304.679 247.7 304.336 248.167 303.832 248.328L289.289 252.956C289.167 252.994 289.041 253.014 288.918 253.014ZM279.434 242.195L289.312 245.582C289.804 245.751 290.136 246.214 290.136 246.735V250.127L302.244 246.274L302.276 234.925L279.434 242.195Z" fill="#FC6A03"/>
<path d="M288.917 246.735L288.878 260.643L278.789 266.507L278.828 252.597L288.917 246.735Z" fill="white"/>
<path d="M278.789 267.725C278.578 267.725 278.368 267.671 278.18 267.562C277.801 267.343 277.569 266.939 277.571 266.503L277.61 252.595C277.611 252.162 277.841 251.761 278.216 251.545L288.305 245.682C288.683 245.46 289.149 245.461 289.526 245.679C289.906 245.899 290.137 246.302 290.136 246.738L290.097 260.647C290.096 261.08 289.865 261.48 289.49 261.696L279.401 267.56C279.212 267.671 279.001 267.725 278.789 267.725ZM280.045 253.3L280.014 264.386L287.662 259.942L287.692 248.857L280.045 253.3Z" fill="#FC6A03"/>
<path d="M278.828 252.597L278.789 266.507L261.405 260.544L261.445 246.636L278.828 252.597Z" fill="white"/>
<path d="M278.789 267.725C278.656 267.725 278.522 267.703 278.394 267.659L261.01 261.697C260.517 261.527 260.185 261.062 260.186 260.541L260.225 246.632C260.227 246.24 260.417 245.871 260.737 245.643C261.059 245.414 261.47 245.355 261.839 245.482L279.223 251.444C279.717 251.615 280.048 252.079 280.047 252.601L280.008 266.509C280.007 266.901 279.817 267.271 279.496 267.499C279.287 267.647 279.039 267.725 278.789 267.725ZM262.626 259.674L277.575 264.802L277.607 253.467L262.658 248.34L262.626 259.674Z" fill="#FC6A03"/>
<path d="M261.445 246.636L261.405 260.544L252.004 263.234L236.825 254.471L261.445 246.636Z" fill="white"/>
<path d="M252.002 264.453C251.79 264.453 251.579 264.398 251.393 264.29L236.215 255.527C235.796 255.286 235.56 254.82 235.612 254.34C235.665 253.86 235.994 253.455 236.453 253.309L261.073 245.473C261.446 245.356 261.851 245.422 262.165 245.651C262.479 245.882 262.664 246.249 262.663 246.639L262.624 260.547C262.622 261.089 262.262 261.566 261.74 261.716L252.337 264.406C252.228 264.438 252.114 264.453 252.002 264.453ZM239.823 254.796L252.164 261.92L260.189 259.624L260.22 248.305L239.823 254.796Z" fill="#FC6A03"/>
<path d="M223.493 258.713L210.537 251.232L205.339 248.231L205.3 262.14L210.498 265.14L223.453 272.621L252.004 289.103L252.043 275.195L223.493 258.713Z" fill="white"/>
<path d="M252.002 290.323C251.791 290.323 251.581 290.269 251.393 290.16L204.69 263.195C204.311 262.976 204.08 262.572 204.081 262.136L204.12 248.228C204.121 247.794 204.354 247.392 204.731 247.175C205.107 246.958 205.572 246.959 205.948 247.176L252.651 274.14C253.03 274.359 253.261 274.762 253.26 275.199L253.221 289.108C253.22 289.542 252.987 289.944 252.61 290.161C252.423 290.27 252.212 290.323 252.002 290.323ZM206.521 261.438L250.79 286.997L250.82 275.898L206.551 250.34L206.521 261.438Z" fill="#FC6A03"/>
<path d="M262.347 269.206L262.308 283.116L252.003 289.103L252.042 275.195L262.347 269.206Z" fill="white"/>
<path d="M252.002 290.323C251.791 290.323 251.581 290.268 251.393 290.16C251.014 289.941 250.782 289.537 250.783 289.101L250.822 275.191C250.824 274.759 251.054 274.358 251.429 274.142L261.735 268.154C262.113 267.932 262.579 267.934 262.956 268.152C263.335 268.371 263.567 268.775 263.566 269.211L263.525 283.119C263.524 283.552 263.294 283.953 262.92 284.169L252.615 290.158C252.426 290.268 252.214 290.323 252.002 290.323ZM253.259 275.897L253.228 286.984L261.092 282.414L261.123 271.328L253.259 275.897Z" fill="#FC6A03"/>
<path d="M303.501 233.257L275.551 242.152L288.917 246.735L278.828 252.597L261.445 246.636L236.825 254.471L262.347 269.206L252.043 275.195L223.493 258.713L210.537 251.232L205.339 248.231L236.857 238.199L226.81 234.753L236.898 228.89L250.964 233.715L285.339 222.772L303.501 233.257Z" fill="#FC6A03"/>
<path d="M252.042 276.414C251.832 276.414 251.621 276.359 251.433 276.25L204.731 249.287C204.313 249.046 204.076 248.58 204.129 248.1C204.181 247.62 204.51 247.215 204.969 247.069L232.975 238.156L226.415 235.906C225.964 235.751 225.643 235.347 225.597 234.871C225.551 234.396 225.785 233.938 226.198 233.699L236.286 227.836C236.592 227.658 236.96 227.621 237.293 227.736L250.979 232.432L284.969 221.608C285.3 221.504 285.653 221.542 285.949 221.714L304.11 232.2C304.528 232.441 304.764 232.907 304.712 233.387C304.66 233.867 304.331 234.272 303.871 234.418L279.435 242.194L289.313 245.581C289.764 245.735 290.085 246.14 290.131 246.615C290.177 247.091 289.943 247.549 289.53 247.788L279.442 253.651C279.137 253.829 278.767 253.866 278.435 253.751L261.432 247.919L239.825 254.797L262.958 268.152C263.334 268.37 263.567 268.771 263.567 269.206C263.568 269.64 263.337 270.043 262.96 270.26L252.654 276.248C252.464 276.359 252.255 276.414 252.042 276.414ZM208.338 248.554L252.039 273.786L259.916 269.21L236.215 255.526C235.797 255.284 235.56 254.819 235.613 254.339C235.665 253.858 235.994 253.454 236.453 253.308L261.073 245.472C261.326 245.394 261.594 245.395 261.839 245.481L278.697 251.262L285.997 247.02L275.155 243.303C274.658 243.131 274.325 242.662 274.331 242.136C274.337 241.61 274.68 241.147 275.179 240.988L300.499 232.931L285.194 224.094L251.332 234.876C251.085 234.954 250.814 234.953 250.567 234.868L237.027 230.222L229.727 234.464L237.252 237.043C237.749 237.215 238.082 237.684 238.076 238.21C238.07 238.736 237.727 239.199 237.227 239.358L208.338 248.554Z" fill="#FC6A03"/>
<path d="M143.62 242.459C143.598 242.442 143.579 242.422 143.558 242.404C143.148 242.064 142.761 241.692 142.398 241.283C142.381 241.264 142.365 241.243 142.348 241.224C141.984 240.809 141.644 240.364 141.331 239.883C141.319 239.863 141.308 239.843 141.296 239.823C140.983 239.336 140.694 238.818 140.434 238.264C140.426 238.246 140.418 238.228 140.411 238.21C140.151 237.65 139.919 237.06 139.716 236.435C139.711 236.42 139.708 236.403 139.703 236.389C139.501 235.759 139.329 235.097 139.189 234.402C139.186 234.39 139.185 234.378 139.183 234.366C139.042 233.665 138.935 232.934 138.861 232.169C138.86 232.162 138.86 232.155 138.86 232.147C138.786 231.377 138.747 230.577 138.745 229.744C138.71 217.059 143.265 204.588 157.19 194.818C158.105 194.152 159.031 193.52 159.979 192.973L303.363 110.191L173.117 34.5004L29.7339 117.283C17.9864 124.065 8.46063 140.556 8.49963 154.054C8.51913 160.759 10.8945 165.482 14.7214 167.706L144.966 243.395C144.947 243.384 144.93 243.37 144.912 243.359C144.461 243.092 144.028 242.794 143.62 242.459Z" fill="white"/>
<path d="M145 244.621C144.777 244.621 144.554 244.565 144.352 244.448L14.1083 168.759C9.7257 166.213 7.3016 160.991 7.28089 154.057C7.24067 140.176 17.0394 123.206 29.1245 116.227L172.507 33.4449C172.885 33.2268 173.349 33.2268 173.729 33.4474L303.973 109.137C304.349 109.355 304.58 109.757 304.579 110.191C304.578 110.626 304.346 111.028 303.97 111.245L160.587 194.027C159.778 194.494 158.928 195.059 157.907 195.802C145.786 204.305 139.921 215.402 139.961 229.739C139.964 230.523 140 231.292 140.071 232.031C140.075 232.069 140.078 232.13 140.078 232.169C140.142 232.759 140.244 233.459 140.376 234.127C140.51 234.797 140.672 235.421 140.862 236.016C141.057 236.623 141.273 237.172 141.515 237.694C141.768 238.238 142.031 238.715 142.318 239.163C142.626 239.638 142.933 240.041 143.262 240.418C143.62 240.825 143.965 241.159 144.335 241.466C144.736 241.798 145.12 242.066 145.53 242.307C145.57 242.331 145.635 242.376 145.672 242.404C146.246 242.748 146.393 243.465 146.053 244.041C145.832 244.42 145.419 244.621 145 244.621ZM173.115 35.908L30.3433 118.338C18.9334 124.927 9.6806 140.947 9.71839 154.05C9.73545 160.083 11.7293 164.558 15.3319 166.653L139.287 238.687C138.997 238.052 138.758 237.439 138.555 236.812C138.322 236.078 138.137 235.365 137.992 234.641C137.836 233.854 137.721 233.076 137.646 232.288C137.642 232.249 137.638 232.186 137.638 232.147C137.565 231.452 137.525 230.605 137.523 229.747C137.481 214.764 143.861 202.677 156.488 193.82C157.561 193.035 158.483 192.427 159.367 191.915L300.928 110.185L173.115 35.908Z" fill="#4B61D1"/>
<path d="M20.6871 170.953C20.6871 170.953 20.692 155.871 20.6871 154.021C20.6615 144.906 27.8777 132.427 35.8276 127.837L173.097 48.5854L279.045 110.157L153.884 182.419C141.242 189.717 129.397 206.751 127.764 219.305C126.722 227.319 128.22 233.665 128.22 233.665L20.6871 170.953Z" fill="#4B61D1"/>
<path d="M128.221 234.882C128.009 234.882 127.797 234.828 127.607 234.717L20.0741 172.007C19.6987 171.788 19.4696 171.387 19.4696 170.954C19.4696 170.954 19.4744 155.874 19.4696 154.024C19.4427 144.541 26.949 131.556 35.2195 126.78L172.488 47.5288C172.866 47.3119 173.331 47.3094 173.711 47.5312L279.66 109.102C280.036 109.321 280.267 109.723 280.266 110.157C280.265 110.592 280.033 110.994 279.657 111.211L154.496 183.473C142.282 190.524 130.595 207.005 128.975 219.46C127.974 227.164 129.395 233.321 129.409 233.383C129.521 233.857 129.339 234.352 128.947 234.642C128.732 234.801 128.477 234.882 128.221 234.882ZM21.9071 170.253L126.578 231.293C126.224 228.641 125.894 224.235 126.557 219.146C128.26 206.042 140.496 188.739 153.276 181.361L276.615 110.151L173.094 49.9931L36.437 128.893C28.8064 133.297 21.8815 145.273 21.9058 154.017C21.9107 155.628 21.9083 167.261 21.9071 170.253Z" fill="#4B61D1"/>
<path d="M277.429 134.591L160.005 202.386C152.778 206.557 146.913 216.708 146.936 225.013C146.948 229.155 148.421 232.065 150.789 233.427C150.949 233.52 151.123 233.588 151.291 233.666C151.435 233.733 151.573 233.811 151.723 233.867C151.901 233.934 152.091 233.976 152.277 234.027C152.43 234.069 152.578 234.124 152.737 234.156C152.93 234.195 153.133 234.208 153.332 234.232C153.495 234.251 153.654 234.283 153.822 234.291C154.03 234.302 154.25 234.285 154.466 234.279C154.635 234.274 154.799 234.283 154.973 234.267C155.2 234.246 155.438 234.199 155.673 234.16C155.843 234.132 156.008 234.118 156.182 234.08C156.427 234.027 156.679 233.945 156.93 233.872C157.102 233.822 157.269 233.787 157.443 233.728C157.718 233.634 158.001 233.51 158.281 233.393C158.437 233.328 158.59 233.278 158.747 233.207C159.188 233.003 159.637 232.771 160.09 232.511L303.474 149.728L277.429 134.591Z" fill="white"/>
<path d="M153.971 235.514L153.761 235.509C153.616 235.501 153.473 235.483 153.33 235.461L153.027 235.425C152.849 235.406 152.672 235.387 152.501 235.353C152.35 235.322 152.212 235.281 152.074 235.238L151.817 235.165C151.642 235.119 151.467 235.071 151.3 235.01C151.152 234.953 151.021 234.89 150.891 234.826L150.656 234.715C150.495 234.643 150.335 234.572 150.184 234.485C147.315 232.835 145.73 229.472 145.716 225.015C145.691 216.323 151.827 205.697 159.394 201.329L276.818 133.534C277.196 133.315 277.66 133.315 278.041 133.536L304.085 148.672C304.461 148.89 304.692 149.292 304.691 149.726C304.69 150.161 304.458 150.563 304.082 150.78L160.699 233.562C160.212 233.843 159.731 234.094 159.255 234.311C159.131 234.368 159.01 234.414 158.89 234.461L158.593 234.58C158.34 234.689 158.085 234.795 157.837 234.88C157.695 234.927 157.566 234.962 157.438 234.996L157.085 235.096C156.868 235.161 156.653 235.224 156.442 235.27C156.303 235.3 156.166 235.321 156.029 235.339L155.689 235.394C155.484 235.43 155.281 235.464 155.081 235.481C154.953 235.493 154.828 235.495 154.702 235.495L154.467 234.278L154.507 235.495L154.353 235.503C154.225 235.508 154.096 235.514 153.971 235.514ZM277.426 135.999L160.614 203.442C153.722 207.421 148.133 217.096 148.155 225.009C148.166 228.559 149.316 231.175 151.397 232.371C151.474 232.414 151.559 232.45 151.643 232.488L151.976 232.645C152.037 232.674 152.095 232.706 152.157 232.729C152.238 232.758 152.336 232.782 152.435 232.808L152.796 232.91C152.857 232.929 152.917 232.949 152.979 232.962C153.07 232.981 153.172 232.988 153.275 232.999L153.681 233.049C153.748 233.059 153.812 233.07 153.882 233.074L153.968 233.076C154.058 233.076 154.151 233.071 154.244 233.068L154.596 233.058C154.75 233.059 154.809 233.058 154.864 233.053C154.997 233.041 155.133 233.016 155.269 232.992L155.703 232.923C155.773 232.913 155.844 232.906 155.917 232.89C156.073 232.856 156.229 232.808 156.386 232.762L156.819 232.639C156.896 232.618 156.975 232.598 157.055 232.572C157.242 232.507 157.441 232.422 157.64 232.338L158.022 232.183C158.094 232.156 158.164 232.129 158.238 232.096C158.646 231.91 159.06 231.695 159.479 231.453L301.04 149.722L277.426 135.999Z" fill="#4B61D1"/>
<path d="M160.005 202.386C154.613 205.498 149.982 211.941 147.985 218.46L150.764 220.075C153.15 221.461 156.452 221.269 160.09 219.168L303.473 136.385L288.944 127.942L160.005 202.386Z" fill="white"/>
<path d="M154.219 222.181C152.722 222.181 151.353 221.827 150.152 221.129L147.375 219.515C146.885 219.231 146.656 218.646 146.822 218.105C148.969 211.085 153.905 204.501 159.395 201.331L288.334 126.888C288.712 126.671 289.176 126.668 289.557 126.89L304.087 135.335C304.462 135.553 304.694 135.955 304.692 136.389C304.691 136.824 304.46 137.226 304.083 137.443L160.701 220.226C158.452 221.522 156.272 222.181 154.219 222.181ZM149.45 217.901L151.376 219.022C153.441 220.218 156.407 219.888 159.481 218.114L301.041 136.383L288.94 129.35L160.613 203.441C155.865 206.183 151.556 211.789 149.45 217.901Z" fill="#4B61D1"/>
<path d="M303.362 110.19L303.388 119.603L160.005 202.386C152.778 206.557 146.913 216.708 146.936 225.013C146.959 233.325 152.863 236.681 160.09 232.509L303.474 149.727L303.501 159.141L160.117 241.923C148.37 248.705 138.782 243.242 138.744 229.743C138.706 216.245 143.861 202.986 159.978 192.972L303.362 110.19Z" fill="white"/>
<path d="M150.577 246.056C142.677 246.056 137.552 239.654 137.525 229.747C137.48 213.679 144.818 200.958 159.336 191.937L302.752 109.135C303.128 108.92 303.592 108.916 303.97 109.134C304.346 109.352 304.579 109.753 304.58 110.187L304.606 119.602C304.607 120.038 304.376 120.442 303.997 120.661L160.614 203.443C153.722 207.423 148.133 217.097 148.155 225.01C148.17 229.991 150.493 233.085 154.218 233.085C155.815 233.085 157.634 232.52 159.481 231.454L302.863 148.672C303.239 148.456 303.703 148.452 304.081 148.67C304.457 148.889 304.69 149.29 304.691 149.723L304.717 159.138C304.718 159.575 304.487 159.978 304.108 160.197L160.725 242.98C157.191 245.02 153.776 246.056 150.577 246.056ZM302.149 112.298L160.589 194.029C146.678 202.674 139.92 214.362 139.963 229.74C139.987 238.301 144.054 243.62 150.577 243.62C153.303 243.62 156.391 242.669 159.508 240.869L302.279 158.44L302.261 151.835L160.701 233.566C158.452 234.864 156.271 235.522 154.22 235.522C149.074 235.522 145.737 231.399 145.719 225.018C145.693 216.326 151.83 205.699 159.397 201.331L302.168 118.902L302.149 112.298Z" fill="#4B61D1"/>
<path d="M203.417 106.744L174.33 89.8414L174.3 79.075L203.386 95.9778L203.417 106.744Z" fill="white"/>
<path d="M203.417 107.963C203.205 107.963 202.994 107.908 202.804 107.797L173.717 90.8944C173.343 90.6775 173.112 90.2777 173.111 89.845L173.082 79.0786C173.081 78.6423 173.312 78.2389 173.691 78.0195C174.069 77.8026 174.534 77.8001 174.914 78.022L203.999 94.9248C204.373 95.1417 204.604 95.5415 204.605 95.9741L204.635 106.741C204.637 107.177 204.405 107.58 204.026 107.8C203.838 107.908 203.628 107.963 203.417 107.963ZM175.546 89.1394L202.192 104.624L202.169 96.6798L175.524 81.1956L175.546 89.1394Z" fill="#4B61D1"/>
<path d="M231.372 49.9457C229.455 48.8317 226.802 48.9877 223.875 50.6782L174.301 79.0738L203.387 95.9767L252.961 67.581C255.889 65.8906 258.543 65.7346 260.459 66.8485L231.372 49.9457Z" fill="white"/>
<path d="M203.386 97.1966C203.174 97.1966 202.963 97.1417 202.773 97.0308L173.688 80.128C173.311 79.9086 173.081 79.5064 173.082 79.0713C173.083 78.6362 173.316 78.2328 173.695 78.0171L223.269 49.6202C226.468 47.7738 229.622 47.5191 231.985 48.8926L261.072 65.7955C261.653 66.1331 261.852 66.8802 261.512 67.4603C261.175 68.0441 260.425 68.2403 259.847 67.9015C258.262 66.9813 255.966 67.2531 253.57 68.6364L203.992 97.0357C203.804 97.1429 203.596 97.1966 203.386 97.1966ZM176.739 79.0823L203.391 94.5714L252.354 66.5231C253.351 65.9478 254.336 65.5249 255.296 65.258L230.759 50.9999C229.177 50.0797 226.88 50.3515 224.484 51.7348L176.739 79.0823Z" fill="#4B61D1"/>
<path d="M250.664 79.5649L203.417 106.744L203.386 95.9778L252.96 67.5821C258.778 64.2232 263.514 66.9228 263.534 73.6076L263.618 87.0931L250.664 79.5649Z" fill="white"/>
<path d="M203.417 107.963C203.206 107.963 202.996 107.908 202.809 107.8C202.431 107.583 202.199 107.182 202.198 106.748L202.167 95.9815C202.166 95.5439 202.4 95.1381 202.781 94.9199L252.354 66.5231C254.2 65.4591 255.994 64.9192 257.686 64.9192C261.965 64.9192 264.738 68.328 264.754 73.604L264.837 87.087C264.839 87.5233 264.608 87.9292 264.229 88.1486C263.851 88.3692 263.385 88.3679 263.005 88.1473L250.66 80.9738L204.025 107.802C203.837 107.909 203.626 107.963 203.417 107.963ZM204.607 96.6835L204.631 104.641L250.056 78.5083C250.435 78.2901 250.898 78.2913 251.277 78.5119L262.386 84.9676L262.315 73.615C262.304 69.6943 260.574 67.3567 257.685 67.3567C256.443 67.3567 255.02 67.7991 253.568 68.6376L204.607 96.6835Z" fill="#4B61D1"/>
<path d="M206.543 84.8762C202.46 84.8762 198.644 83.9707 195.797 82.3278C193.26 80.8629 191.861 79.0275 191.858 77.1603C191.856 75.3103 193.229 73.4931 195.725 72.0428C198.55 70.4011 202.354 69.4968 206.434 69.4968C210.518 69.4968 214.336 70.4024 217.184 72.0465C219.72 73.5102 221.118 75.3456 221.12 77.2127C221.123 79.0628 219.75 80.8787 217.254 82.329C214.429 83.9719 210.624 84.8762 206.543 84.8762Z" fill="#4B61D1"/>
<path d="M206.543 86.095C202.25 86.095 198.218 85.1322 195.189 83.3833C192.259 81.6916 190.644 79.482 190.642 77.1615C190.637 74.8593 192.226 72.6668 195.116 70.9898C198.123 69.2409 202.143 68.2781 206.437 68.2781C210.731 68.2781 214.765 69.2409 217.796 70.991C220.723 72.6826 222.338 74.891 222.342 77.2115C222.344 79.5137 220.756 81.7063 217.87 83.3833C214.86 85.1322 210.837 86.095 206.543 86.095ZM206.436 70.7144C202.565 70.7144 198.981 71.559 196.34 73.0946C194.264 74.2999 193.076 75.7807 193.078 77.1567C193.079 78.5521 194.293 80.0512 196.407 81.2712C199.071 82.8092 202.671 83.6563 206.542 83.6563C210.412 83.6563 213.999 82.8104 216.644 81.2748C218.716 80.0695 219.904 78.5887 219.903 77.2127C219.9 75.8197 218.688 74.3206 216.576 73.1007C213.91 71.5626 210.309 70.7144 206.436 70.7144Z" fill="#4B61D1"/>
<path d="M69.002 227.382C63.854 224.41 55.4982 224.41 50.3832 227.382L34.1445 236.819L52.8341 247.61L69.0727 238.173C74.1866 235.2 74.1597 230.36 69.002 227.382Z" fill="white"/>
<path d="M52.8328 248.829C52.622 248.829 52.4112 248.774 52.2235 248.665L33.5339 237.874C33.1573 237.656 32.9258 237.255 32.9246 236.82C32.9233 236.386 33.1549 235.983 33.5303 235.766L49.7689 226.329C52.427 224.784 55.9455 223.934 59.6798 223.934C63.4128 223.934 66.9387 224.784 69.6102 226.327C72.5071 227.999 74.1037 230.297 74.1073 232.8C74.111 235.285 72.54 237.566 69.6833 239.226L53.4447 248.663C53.2545 248.774 53.0437 248.829 52.8328 248.829ZM36.5747 236.817L52.8304 246.202L68.4584 237.12C70.5315 235.915 71.6735 234.381 71.6711 232.803C71.6686 231.207 70.5035 229.658 68.3926 228.439C66.0843 227.106 62.9911 226.373 59.681 226.373C56.3709 226.373 53.2862 227.107 50.9962 228.436L36.5747 236.817Z" fill="#FC6A03"/>
<path d="M97.0308 243.565C91.8828 240.592 83.5271 240.592 78.412 243.565L62.1733 253.002L80.8531 263.786L97.0917 254.349C102.207 251.377 102.179 246.537 97.0308 243.565Z" fill="white"/>
<path d="M80.8531 265.005C80.6423 265.005 80.4314 264.95 80.2438 264.842L61.564 254.057C61.1874 253.839 60.9558 253.438 60.9546 253.003C60.9534 252.569 61.1849 252.166 61.5603 251.949L77.7989 242.512C80.457 240.966 83.9756 240.116 87.7098 240.116C91.4416 240.116 94.9687 240.965 97.6402 242.508C100.531 244.178 102.125 246.474 102.129 248.975C102.132 251.46 100.562 253.744 97.7036 255.403L81.4662 264.839C81.276 264.951 81.0652 265.005 80.8531 265.005ZM64.6047 252.999L80.8507 262.379L96.4787 253.296C98.553 252.091 99.6938 250.558 99.6913 248.977C99.6889 247.383 98.5287 245.837 96.4214 244.62C94.1131 243.288 91.0199 242.554 87.7098 242.554C84.3997 242.554 81.3163 243.289 79.025 244.619L64.6047 252.999Z" fill="#FC6A03"/>
</svg>
